<?xml version="1.0" encoding="UTF-8"?><svg id="Ebene_2" xmlns="http://www.w3.org/2000/svg" viewBox="0 0 278.58 535.37"><defs><style>.cls-1{fill:#750034;}</style></defs><g id="Ebene_3_Kopie"><path class="cls-1" d="M171.81,0c5.13,2.93,10.83,4.89,12.82,10.93.88,2.68,2.54,19.46,1.66,21.44-.49,1.11-1.99,1.75-2.12,3.1-.55,5.6,2.86,15.32,1.99,21.5-.3,2.14-1.67,2.36-1.98,3.87-.47,2.34.67,4.48.5,6.35-.2,2.31-3.03,4.88-1.5,7.64.88,1.14.94.26,1.54-.43,4.73-5.48,2.63-7.2,4.13-12.14.6-1.95,3.12-6.31,3.63-8.73.62-2.93-.49-5.63-.22-8.03.19-1.7,1.4-2.92,1.63-4.23.44-2.55-1.11-6.55,1.33-8.09,2.52,6.93,2.24,13.99,2.62,21.14.23,4.44,1.25,9.07.59,13.61-.31,2.09-1.75,3.41-1.94,5.25-.26,2.45,1.04,4.68.68,7.12-.26,1.77-1.85,2.94-2.17,5.02s.53,4.37.19,6.7c-1.26,8.62-4.48,19.19-6.94,27.54s-3.92,18.08-6.86,26.33c-1.6,4.48-1.74,5.5-2.87,10.14-1.26,5.13-6.13,11.37-7.59,17.19-1.28,5.08-2.2,11.89-4.71,16.7-5.67,10.87-8.33,17.67-12.32,29.32-2.36,6.9-9.12,15.91-11.1,22.14-1.37,4.3-1.72,6.5-4.04,10.87-1.39,2.62-5.44,6.49-3.74,9.94.46.93,5.9,3.76,7.14,3.93,6.01.83,23.67.6,29.96-.04,11.2-1.13,4.19-9.14,8.51-15.56,3.38-5.02,4.06-6.03,5.99-12.23,2.52-8.1,3.83-10.45,7.45-17.93,2.56-5.29,3.37-13.32,6.88-19.15,4.28-7.1,8.24-13.49,12.12-21.06,2.5-4.89,3.84-8.07,7.24-12.26,1.74-2.15,5.23-8.99,6.36-9.59.87-.46,1.97-.27,2.86-.72,6.5-3.23,7.95-14.46,14.92-18.28.82-.45,6.93-2.67,7.65-2.65,2.44.06,11.82,3.66,13.44,5.47,1.76,1.96,1.93,6.02,3.33,8.39.89,1.51,3,2.58,3.52,4.29.78,2.54.47,6.78,1.22,9.84.83,3.36,5.04,11.78,4.96,14.58-.04,1.36-1.27,7.82-1.63,9.49-1.05,4.81-4.44,9.99-5.42,14.75-.41,2.01.17,4.02-.44,6.07-.7,2.37-4.38,7.37-5.3,10.37-.51,1.66.45,2.91-.39,4.71-1.05,2.25-5.76,5.03-6.25,7.48-.33,1.62.86,6.63.47,9.55-1.12,8.32-7.18,17.51-9.9,25.24-3.26,9.25-7.41,16.2-11.2,25.24-.72,1.73-.67,3.97-1.49,5.67-2.3,4.77-1.93,2.93-3.55,8.82-1.24,4.51-3.3,5.76-4.74,8.93-1.92,4.24-2.91,10.41-5.2,14.97-1.35,2.69-4.01,5.33-5.02,7.99s-1.04,6.23-2.14,8.92c-3.47,8.49-7.15,16.71-10.29,25.5-.85,2.37-1.01,6.29-1.92,8.49s-3.17,4.1-3.94,7.12c-1.91,7.52-3.64,14.45-5.69,21.64-2.81,9.85-3.42,20.48-5.34,30.45-.74,3.85-3.51,10.09-3.77,13.18-.63,7.42,3,11.35-.27,19.22-.71,1.72.49,20.29,1.09,22.94.37,1.66,1.88,2.29,2.31,3.54.62,1.79.44,4.2,1.33,6.48,3.5,8.97,8.05,9.79,17.39,8.67,3.24-.39,8.17-4.62,10.73-6.84,5.51-4.77,10.87-11.76,14.59-17.95,5.58-9.27,12-28.86,8.64-39.77-.42-1.38-1.68-2.56-2.12-4.38-.8-3.29-2.16-18.15-1.43-21.03.17-.68,1.54-2.62,2.11-3.1,4.19-3.53,6.06.92,8.44.7,1.58-.15,2.05-2.43,3.62-1.75,1.16.31,5.8,4.92,6.32,6.11.77,1.76.45,3.97,1,5.5,2.57,7.11,3.57,9.55,3.78,17.74.09,3.5-1.39,3.1-1.87,4.69s.08,3.71-.29,5.56c-1.77,8.69-6.34,20.98-10.62,28.42-1.08,1.88-8.41,14.41-9.05,15.02-1.15,1.1-3.2,1.46-4.57,2.59-3.26,2.68-6.31,7.34-9.15,9.72-1.49,1.25-4.43,2.19-6.47,3.94-.98.84-1.57,2.71-2.56,3.3-1.26.75-2.54.38-3.62.96-.57.31-.47,1.57-1.89,1.97-1.74.49-3.74-.08-5.27.6-1.12.5-1.47,2.14-2.18,2.7-2.72,2.17-5.87,2.6-7.91,5.97-3.39-2.61-8.88-2.75-12.64-4.82s-12.05-11.16-13.4-15.23c-4.17-12.55-6.51-25.31-10.01-38.14l-1.37-18.48h-1.95v12.69c0,.31-1.25,4.19-1.6,5.54-.28,1.08-2.42,6.5-3.28,6.49-2.1-3.63-5.19-6.66-3.11-10.89.38-.77,1.24-.81,1.3-.96.48-1.1-.31-6.35-.77-7.68-3.99-11.49-3.66-19.57-2.28-31.51.37-3.2-.54-7.31.02-10.39.28-1.53,1.79-2.75,1.87-4.64.11-2.43-1.09-5.28-.57-8.38.29-1.73,1.6-2.5,1.89-3.96.92-4.61.52-11.3,1.34-15.58.28-1.44,1.65-1.83,1.93-3.27.48-2.47-.38-5.93-.02-8.48.74-5.27,2.13-11.65,3.44-16.73.5-1.94,1.74-4.07,1.83-6.03s-.89-3.63-.69-5.13c.24-1.85,3.36-4.89,1.96-8.18-4.19.59-6.16-.01-7.04-4.39-.66-3.29,3.03-7.34,3.54-10.56.26-1.68-.53-2.76-.4-4.18.3-3.32,3.95-7.65,4.43-9.3.71-2.43.22-5.91,1.6-8.81s5-4.25,5.41-8.92l-3.44-3.81c-8.19-.99-17.92.86-25.91-.12-2.12-.26-2.7-1.2-4.45-1.91l-2.04,1.79c-6.45-4.84-12.91-3.65-16.73,3.55-2.71,5.1-4.24,12.14-7.13,16.95-8.8,14.63-17.05,30.5-25.41,45.52-3.43,6.16-6.69,12.32-10.52,18.11-8.57,12.97-18.02,30.14-31.07,39.21-6.21,4.32-15.2,6.22-20.77.06-.77-.85-.98-2.34-1.45-2.77-.77-.72-2.61-.59-3.71-1.18-2.12-1.15-3.05-3.55-3.3-5.81-1.29-11.48-.35-21.62,3.22-32.57,1.27-3.88,4.87-7.6,7.08-11.14,6.19-9.89,10.37-19.86,16.36-29.83,1.5-2.49,6.07-7.68,6.84-9.43,2.07-4.68,3.19-13.97,5.03-19.05,1.27-3.5,5.63-8.12,7.18-11.69,2.24-5.18,3-12.33,5.19-17.58.83-1.98,2.32-3.27,2.96-5.23-.73-4.91-5.3-5.17-8.28-7.32-7.22-5.22-21.19-16.23-26.7-22.75-2.4-2.84-2.73-5.48-6.17-7.5-1.02-.6-2.63-.49-3.29-1.26-.54-.63-.56-2.22-1.33-3.23-4.4-5.78-9.12-11.62-12.16-18.42-2.28-5.11-4.4-12.42-6.18-17.89s-.79-16-1.45-22.62c-.12-1.18.22-2.43-1.33-2.9v-1.3c5.08-1.13,2.41-4.74,2.73-7.34,1.29-10.44,9.31-28.89,13.86-38.86,4.14-9.07,11.8-15.4,16.22-23.47,7.85-14.32,23.04-26.77,35.19-37.69,9.87-8.87,20.45-19.83,31.74-26.82,5.82-3.6,10.09-7.4,15.44-11.24,1.96-1.41,27.15-13.37,29.99-14.26,3.38-1.07,8.03-.36,10.36-3.64h16.27ZM152.28,16.91c-4.68,1.28-9.39,2.71-13.8,4.74-22.17,10.22-40.85,26.36-59.78,40.44-17.07,18.14-34.44,35.16-47.34,56.12-1.31,2.12-5.84,7.72-6.34,9.27-.82,2.56-.45,5.72-1.72,8.69-2.74,6.38-3.4,5.48-4.61,13.05-.22,1.4-3.86,5.84-4.24,7.43-.44,1.83.61,3.19.5,4.95-.12,1.93-1.69,3.28-1.96,5.25-.25,1.8.36,9.79.7,11.72.28,1.55,1.99,2.93,2.43,4.73.56,2.32.19,5.7.98,8.13,1.37,4.24,6.48,13.54,8.63,18.05.37.77,7.72,11.13,8.3,11.55.97.71,3.18.53,4.71,1.47,2.49,1.53,6.4,6.84,9.11,9.11,6.02,5.03,15.47,10.41,22.56,13.23,2.23.88,3.33,3.13,5.94,1.68,4.07-2.26,3.8-6.97,5.18-10.47.72-1.83,3.16-5.3,3.56-6.85.42-1.64-.16-3.38.29-4.92,1.31-4.55,7.57-16.35,9.76-21.47,3.5-8.18,5.08-15.49,8.06-23.18,5.4-13.92,14.67-27.11,20.09-41.08,2.18-5.62,3.41-13.21,5.74-18.98s6.35-11.16,8.25-17.78c2.22-7.76,4.42-15.69,7.18-23.4.44-1.23,1.39-2.15,1.89-3.33l-.94-1.52c-2.1-.61-6.96,5.06-7.32,6.3-.89,3.08.14,5.81-2.17,9.54-.94,1.51-5.59,5.24-5.7,6.04s1.1,1.46,1.18,2.47c.18,2.44-2.53,8.12-3.82,10.48-.42.77-1.72,1.3-2.25,2.3-.97,1.83-.69,4.41-1.52,6.29-1.1,2.46-6,6.51-6.99,9.93-1.62.8-.93-3.45-.81-4.07.71-3.58,4.71-7.35,5.55-10.72.4-1.62-.09-3.28.31-4.9.64-2.59,5.36-7.66,6.06-10.88,1.3-5.98,1.77-9.49,4.73-15.42,1.59-3.18,8.66-12.19,9.09-13.69,1.06-3.71-.36-7.39,2.24-12.07,1.23-2.21,4.25-3.79,5.33-5.73,1.31-2.35.65-4.33,1.32-6.49,1-3.23,6.75-8.46,5.49-12.55l-2.52-1.08c-.49,2.65-1.79,10.13-4.54,10.77-2.53.59-.65-5.05-.31-6.18,1.82-6.07,6.17-9.68,3.54-16.95ZM157.49,22.12h-.96s-.99,1.29-.99,1.29h1.95s0-1.29,0-1.29ZM97.62,39.68c.32-.25-1.14-1.72-1.95-1.29-.32.25,1.14,1.72,1.95,1.29ZM184.14,80l-.29-1.27-2.28,3.25c1.99.43.91-.88,1.5-1.74.22-.32,1-.16,1.07-.24ZM182.87,85.89h-1.29v1.29h1.29v-1.29ZM180.92,87.84h-1.29v1.29h1.29v-1.29ZM177.01,102.16h-1.29v.64h1.29v-.64ZM18.87,125.58l-1.29.32,1.29.98v-1.3ZM14.96,137.29l-1.29.32,1.29.98v-1.3ZM139.92,137.29c-4.4-.7-1.8,5.34-.48,2.44.35-.77.56-1.59.48-2.44ZM3.99,175.58c5.55,1.84,4.4-2.23,5.27-5.28,1.46-5.1.52-5.74,1.19-10.53.37-2.63,1.21-6.47,1.7-9.35.33-1.91,2.97-4.15.52-5.98-1.6-.47-3.17,1.74-3.45,3.1-1.37,6.73-1.79,13.73-3.52,20.5-.61,2.38-2.62,4.68-1.72,7.54ZM134.06,156.8c-.09-1.92.84-5.24-1.95-5.2.09,1.92-.84,5.24,1.95,5.2ZM228.43,163.96c.4-.43-.3-2.58-.97-2.59-1.94-.02-.18,3.83.97,2.59ZM9.11,184.14h-1.3s0,1.29,0,1.29l1.29-1.29ZM216.06,191.29h-1.29v.64h1.29v-.64ZM167.9,311.01l-1.29.32,1.29.98v-1.3ZM180.92,491.89h-1.95v.64h1.95v-.64ZM179.72,499.59c1.56.78,3.53,1.39,3.8-.86-1.1-1.2-2.02-2.62-3.89-2.29l.09,3.15ZM184.17,504.89v-.96s-1.29-.99-1.29-.99v1.95s1.29,0,1.29,0Z"/></g></svg>