<?xml version="1.0" encoding="UTF-8"?><svg id="Ebene_2" xmlns="http://www.w3.org/2000/svg" viewBox="0 0 796.16 987"><defs><style>.cls-1{fill:#750034;}.cls-2{fill:#8c6b6b;opacity:.5;}.cls-3{letter-spacing:-.09em;}.cls-4{letter-spacing:-.03em;}.cls-5{letter-spacing:-.03em;}.cls-6{letter-spacing:-.02em;}.cls-7{letter-spacing:-.02em;}.cls-8{fill:#401717;font-family:MinionConceptRoman-Bold, 'Minion Variable Concept';font-size:91.99px;font-variation-settings:'wght' 700, 'opsz' 11;font-weight:700;}.cls-9{letter-spacing:-.04em;}.cls-10{letter-spacing:-.04em;}.cls-11{fill:#332a2a;}</style></defs><g id="Ebene_3_Kopie"><path id="NA9Jn3" class="cls-2" d="M405.01,148.89l6.15,4.35,14.01-25.07,8.61,6.05c4.56-12.69,16.09-20.89,18.86-34.52l8.01,4.57c11.12-13.23,23.53-23.48,37.82-32.97,1.83,14.62,5.52,28.89,8.07,43.37.42,2.39-.42,6.32.15,7.62,1.01,2.31,5.98,2.42,6.06,6.94l21.7-15.08,3.67,9.06c15.86-7.29,34.88-7.7,50.3.53l-3.98,8.22c8.53-4.93,23.87-5.25,33.47-3.03,18.73,4.32,33.16,22.2,53.79,24.13-2.69,5.44-8.37,7.76-11.92,12.79-4.53,6.41-6.76,13.8-12.54,20.57-3.5,4.1-8.65,6.49-11.55,11.19l16.23.42c-9.68,7.9-10.97,21.82-14.35,33.3,1.11,3.12,27.18,8.56,32.06,6.81-7.02,5.47-12.6,11.4-17.18,19.17,7.55-.96,39.62,12.02,39.48,18.54-10.62,15.73-2.17,12.46,7.62,20.24,3.95,3.13,7.13,8.23,11.01,11.61.13,1.92-6.54,6.07-3.74,9.82,1.07,1.43,13.37,11.53,15.94,13.43,5.29,3.91,10.56,6.64,16.32,9.62-8.06,1.97-15.44,3.72-19.49,11.98,17.6,3.74,29.97,19.77,46.61,23.22,6.79,1.41,19.26-1.67,9.71,11.94-8.01,11.41-31.37,16.38-44.41,18.38-3.1,1.98,4.8,5.55,3.58,11.27-2.39,11.21-35.82,14.9-45.56,14.29,2.58,3.38,6.09,6.19,9.09,9.23,1.12,1.13,4.75,1.97,1.83,3.95-7.26,4.92-25.23,3.84-33.9,3.73-3.53,3.1,6.71,9.29,3.41,13.13-2.42,2.82-18.06,6.56-21.77,2.44l-1.54,24.53,7.55,16.48c-6.88-3.9-41.41-16.97-41.02-2.04.07,2.77,4.29,4.15.84,6.81l-9.52-2.1,5.14,22.64c27.91-2.05,61.71,24.53,61.73,53.22,0,9.8-5.01,16.79-6.25,25.96,4.83,4.24,11.33,5.09,16.76,8.81,31.75,21.73,28.94,73.45-3.47,93.45,8.55,16.86,12.23,32.7,5.01,50.97-3.13,7.93-9.05,14.36-11.49,21.4-1.67,4.82-.61,12.78-1.78,18.65-9.43,47.02-50.51,54.94-87.98,32.4-7.86-4.73-17.01-15.37-23.62-18.1-4.09-1.69-14.77-.5-20.82-1.88-10.53-2.4-21.47-8.2-29.19-15.85-4.23-4.19-6.87-15.01-10.78-16.2-29.91,9.59-64.25-6.05-76.31-35.28-23.17,1.38-51.45-6.92-63.51-28.3-3.15-5.59-2.92-11.71-5.73-17.13-30.12,8.22-58.79-.79-72.26-30.6l-10.44,2.55c-2.96,3.26-.11,7.22-.45,10.89-.94,9.93-9.95,5.6-12.93,10.73-.83,1.43-2.48,16.61-4.05,21.32-3.77,11.31-9.91,21.76-15.35,32.31-2.61-5.2-7.13-9.15-10.38-13.85-2.56-3.69-8.01-15.06-9.87-16.77-2.61-2.41-6-.35-8.63-2.57-2.9-2.46-5.58-16.37-11.45-16.54-1.73-.05-3.97,2.62-6.28,1.93-3.73-1.11-11.31-15.77-13.46-20.06-4.35-8.67-4.07-23.54-16.55-16.49-5.15-.57-9.81-16.94-11.21-21.88-2.17-7.66-3.4-15.11-4.05-23.02-5.12.56-10.16,2.99-13.33,7.13l-7.29-14.36c-3.77-1.61-22.64,18.82-26.5,21.88l-5.46-3.89c-9.29,7.11-22.21,6.87-28.11,18.77-1.63-3.61-.92-6.34-5.89-6.13-6.78.29-30.66,9.7-35.66,15.45-3.58.32-5.47-13.83-5.45-16.85.08-12.65,8.14-24.02,11.45-35.97l-8.71-.63c3.15-6.22,10.4-20.39,9.95-27.08-.4-5.99-4.03-2.23-7.85-4.57l6-30.69c-2.16-.68-11.21,1.37-11.16-2.42l11.35-43.52-7.24-1.47c1.91-14.94,13.46-27.77,24.95-36.7,2.71-2.11,10.88-5.66,11.82-6.68,1.28-1.4-.05-4.15,1.12-6.11,2.17-3.65,10.61-8.8,13.98-12.17l-12.52-13.6c8.25-12.58,30.12-13.46,28.71-30.21l25.85,2.45c2.7-2.32.87-2.4.43-3.88-.8-2.7-6.94-12.94-6.19-13.96,14.74-1.37,28.34,2.46,41.49,9.09l4.4-5.26c18.65,6.55,30.37,24.86,31.45,44.33,5.36-6,6.21-16.1,10.22-23.33,4.34-7.81,13.35-13.77,15.47-21.03,1.58-5.4-4.74-35.78-5.42-44.37-3.09-39.07,1.81-82.52,27.9-113.75,3.85-4.61,12.83-10.77,15.32-14.73,3.13-4.98,1.57-14.56,5.61-20.24,3.48-4.9,13.55-9.88,17.96-15.16,8.55-10.23,17.12-56.25,7.4-66.87-3.7-4.04-9.93-5.88-12.54-11.33,6.04-5.44,2.81-12.84,5.77-18.79,5.78-11.63,17.75-30.34,27.81-38.18,13.61-10.61,29.94-7.2,45.64-11.19,9.44,12.05,24.15,24.88,20.16,41.87-1.33,5.65-5.14,10.86-6.37,16.2-4.01,17.29-1.17,40.26-6.7,61.58-10.23,39.44-56.89,94.62-5.12,123.86,6.86,3.88,29.98,10.05,34.87,1.63,3.27-5.62-13.73-15.74-13.88-23.59l7.71-4.51c-6.74-14.59-5.63-31.05-.13-45.46,3.17-1.08,9.42,5.25,12.84-.9-1.7-16.92,5.22-32.08,14.14-46.25ZM252.02,222.21c-7.69,8.29-13.68,21.3-21.25,30.1l4.94-12.18c8.08-15.81,21.62-24.12,33.08-36.44,2.69,1.34,5.16,4.5,7.79,5.5,1.21.46,2.5-2.12,3.13-1.49,1.48,1.48,6.78,23.17,8.43,27.71,3.37,9.3,17.31,35.28,14.1,42.89-1.68,3.97-6.97,8.49-7.22,12.03-.19,2.69,3.72,5.74,3.71,6.42-.02,1.33-3.45,2.54-3.97,4.5-.36,1.34,1.93,26.33,2.63,27.52,2.41,4.03,2.97-3.17,3.5-3.87l3.44.54c1.38-4.13-.35-21.82.55-23.86.85-1.91,3.76-2.47,5.59-3.15l-2.35-4.43,4.55,1.39-.3-4.8,10.04-1.19c-4.02-3.52-13.56-3.63-12.65-10.77,4.1,4.5,11.42,3.57,15.4,7.5,7.75,7.64,26.27,40.73,31.64,51.82,2.32,4.8,2.32,14.58,9.02,12.45,1.72-2.21-4.59-23.11-6.1-26.98-2.7-6.95-8.9-14.72-10.52-19.77-1.58-4.94,2.02-9.95-1-14.93-4.34-7.14-10.61-5.72-15.94-9.32-7.44-5.02-17.95-20.12-21.98-28.39-19.31-39.66,9.78-65.52,17.93-102.36,1.44-6.49,5.64-46.89,2.84-50.13-1.14-1.32-3.54-1.22-4.3.72-1.53,3.93.43,20.87.03,27-.6,9.3-1.94,18.74-4.47,27.75-8.13,28.88-31.23,54.25-21.94,85.79-3.02-.17-4.2-6.6-4.79-8.89-8.51-33.23,21.75-65.59,24.47-101.33.24-3.09-.09-23.7-.82-24.7-1.03-1.4-3.64-3.14-4.37-.31-.77,2.99.34,12.61-.24,17.31-3.98,31.95-17.46,44.93-26.26,72.5-.58,1.8-2.62,16.6-4.05,14.72-.5-2.38-2.35-4.67-2.51-7.12-.18-2.85,7.85-24.02,9.62-28.63,2.31-5.98,6.32-11.76,8.56-17.66,6.14-16.22,8.78-35.75,5.9-52.82-8.71-3.78-2.34,8.39-5.44,9.03l-4.24-12.22c9.98-.57,16.23.88,25.77-3.76,18.81-9.15,52.15-41.69,22.43-57.75-22.62-12.22-58.09,15.69-61.12,38.12-.39,2.91,4.61,8.27,1.11,11.4l-1.7-6.71c-2.88.23-3.07,12.12-1.99,13.3,2.77,2.36,5.87-2.16,8.33-1.18,5.3,2.11,4.69,17.28,4.66,22.67-.11,18.1-7.27,58.63-20.88,70.65-5.55,4.9-15.44,4.98-18.54,14.38l8.3,1.29c-43.25,27.37-55.58,85.89-49.29,133.63,1.47,11.16,9.95,35.87,6.84,45.21-2.89,8.66-8.11,9.08-12.74,14.25-8.87,9.89-13.83,24.7-17.34,37.34-2.03,7.3-3.64,25.62-6.55,30.28-1.32,2.11-1.25,2.19-3.09.53-6.87-6.16-13.05-17.31-20.09-24.61-17.09-17.71-36.59-30.73-60.35-37.59l-1.71,2.44c26.12,11.41,50.15,30.08,67.84,52.49-15.67.16-38.79-7.69-50.24,5.96-4.81-17.29-32.08-20.34-45.14-11.62.2,1.46,24.18,0,21.89,8.07-7.67-4.04-16.91-1.01-24.64,1.02,4.83,2.24,10.13,1.67,15.22,3.84,1.48.63,7.52,3.16,5.81,5.48-18.48-6.71-45.37-.37-55.13,18.16,11.83-3.83,21.61-9.33,34.29-10.71,22.24-2.42,36.05,7.42,55.42,8.55,4.27.25,25.92-2.04,28.5-3.68,2.62-1.66-.05-2.99-1.73-3.83-4.52-2.25-9.89-2.26-14.3-4.72,7.96-4.28,20.25,3.39,27.02,3.47,5.65.06-.61-4.79-3.2-6.07-14.2-7.06-29.28-4.45-44.13-2.51,3.14-6.11,6.97-7.19,13.13-8.25,8.61-1.48,41.43,2.14,48.64,6.16,4.03,2.25,9.4,12.2,15,5.56,3.18-3.77-.6-11.23-.58-16.08.06-17.3,5.64-32.6,16.74-46.01,3.11-3.76,8.62-6.95,11.15-10.6,3.05-4.41,2.7-10.91,5.41-15.47l8.8,13.57,3.72-7.64,3.14.54c-2.52-3.03.58-10.83.43-11.39s-5.47-4.33-7.32-6.85c-4.86-6.63-11.03-43.26-11.88-52.98-3.02-34.5,10.52-79.24,40.01-99.81,5.52-3.85,7.81-2.7,13.89-3.88l-6.08-4.01c-1.07-.07-16.42,10.3-17.9,11.91ZM101.99,419.08c-6.82-2.62-14.23-3.07-21.25-1.16l22.67,9.57-14.76-1.23-8.62,3.11c8.69.73,16.47,2.9,23.1,8.96-3.92,1.22-7.83-1.23-12.5-.59-2.5.34-3.64,1.11-.69,2.28,3.23,1.27,23.81,8.07,25.3,7.47l10.95-13.15-17.78-6.11,20.76,4.51c2.63-2.82,0-6.65-2.2-8.78-8.99-8.68-21.15-13.88-33.58-13.86-2.18,0-3.04-2.09-4.55,1.55,2.88,2.3,6.64,2.66,9.88,4.1,1.44.64,5.16,1.26,3.27,3.32ZM88.54,485.08c-14.93-6.49-37.01-4.06-48.18,8.3,3.6,2.64,7.72-1.92,11.95-2.62,2.23-.37,4.16-1.41,6.03.62-3.82,1.75-7.08,4.22-10.09,7.17-.78.77-4.93,4.21-1.47,4,13.78-6.03,29.65-7.98,41.76-17.47ZM139.63,493.53c-15.22,1.38-33.1-12.52-47.99-6.2-4.77,2.03-7.23,6.18-11.53,8.22-4.55,2.15-15.68,2.91-21.77,5.18-15.75,5.88-25.28,14.95-33.15,29.81l14.73-11.51c11.81-2.68,26.33-11.77,37.49-14.1,9.55-1.99,25.42,1.21,38.62-1.33,4.43-.85,23.71-4.98,23.61-10.07ZM342.29,91.75c-3.81,8.15-.13,18.87-1.1,27.69l-2.96,30.17c6.14-14.35,7.19-31.5,6.5-46.96l-2.45-10.9ZM90.78,510.6c-4.7-3.39-14.08-3.76-19.09-1.29-3.05,1.5-4.97,4.48-7.64,5.77-11.09,5.35-25.96,4.88-29.39,20.3l10.61-7.21-5.11,11.1c10.44-5.82,25.21-6.88,34.21-14.39,5.27-4.4,9.23-11.39,16.41-14.28ZM144.19,401.02l-6.56-3.71c.97,3.21,7.56,19.88,10.31,19.27l3.22-3.26,3.3,9.67-.49-12.31c5.81,1.35,4,9.85,6.45,15.07,1.86,3.98,4.91,7.19,7.64,10.55,2.93.21,1.53-3,1.41-4.56-.36-4.92-1.43-11.25-5.23-14.75,1.19-2.38,3.75.75,4.68,1.89,5.47,6.71,4.33,15.36,7.14,23.04,2.49-9.12-.26-29.12-6.1-36.26-2.8-3.43-9.93-8.11-13.03-12.21l.58,9.59-13.01-12.84-.29,10.82ZM248.1,384.18c.82-.04,10.53-6.64,14.25-8.18,4.83-2,9.12-2.93,14.17-3.95.02-15.17,8.73-26.8,16.11-39.23-.39-7.75-5.7-44.8-2.92-48.93,1.5-2.22,4.69-3.38,6.31-6.59,4.13-8.22-9.74-27.94-13.68-35.49-6.31-12.08-5.3-26.11-22.42-11.34-34.49,29.75-35.25,95.52-19.88,135.16,1.9,4.9,6,7.55,7.12,10.65,1.06,2.94-3.21,8.09.95,7.9ZM124.16,510.22c-11.48-1.44-32.47.98-41.02,9.19-3.06,2.94-4.59,6.87-8.05,9.63-9.1,7.26-35.81,6.96-37.45,26.85,8.22-4.01,16.27-9.46,25.9-9.32-5.2,3.66-10.94,4.76-16.27,8.85-4.6,3.54-9.11,7.49-11.85,12.75-.96,1.84-1.89,4.17,1.16,3.55,5.68-5.96,14.36-11.9,22.84-11.49-7.09,6.92-16.92,10.29-21.37,19.89l8.02-3.53-2.24,5.77c6.4-1.68,12.74-5.98,19.64-8.07,12.46-3.78,25.81-.39,32.97-14.49,2.27-4.47,1.32-11.33,5.55-15.54-6.35-4.7-13.86-1.95-20.8-1.79-.29-2.76,14.3-3.69,16.98-4.7,10.94-4.08,22.2-16.52,25.99-27.55ZM152.13,447.15c-6.19-7.93-29.95-7.62-31.19,3.75-.49,4.46,10.9-.93,12.76-1.22,6.08-.95,12.6.31,18.44-2.53ZM327.91,177.32c-23.43,32.24-25.04,67.75,6.63,94.86,2.46-2.46,1.47-2.57-.25-4.75-6.96-8.81-14.11-13.26-18.76-24.87-9.15-22.83,3.37-40.19,11.63-60.28.65-1.58,2.8-3.97.75-4.96ZM83.98,577.58c-.28-2.45-18.47,1.43-20.66,2.13-8.9,2.84-16.69,8.25-24.78,12.73,1.5,4.02,7.5-.42,10.39.88l-12.84,13.01,6.26-1.08-11.9,24.73c3.05,2.55,1.94,1.56,3.72-.17,17.26-16.81,36.26-31.92,49.81-52.23ZM69.47,605.99c-11.92,13.43-29.3,21.36-38.94,36.92,4.24,2.51,26.59-17.49,26.64-14.32l-6.31,10.26c10.02-3.98,17.02-12.56,19.74-22.81.8-3.01,2.33-8.21-1.13-10.05ZM185.52,478.07c-5.37-2.96-12.45,1.83-17,4.59-26.76,16.23-49.91,47.18-63.11,75.05,1.93,1.8,3.13-1.97,4.24-3.42,17.37-22.68,32.57-46.25,55.93-63.68,6.3-4.7,13.77-7.71,19.95-12.54ZM227.74,397.43c-5.96,10.11-17.09,16.32-21.17,27.39,2.31,2.79,2.57.73,3.91.41,2.83-.68,8.02-2.17,9.78-4.49.78-1.03,8.15-16.8,8.87-18.76.95-2.61,1.63-3.12-1.38-4.56ZM100.76,574.7c-10.68,17.14-20.8,33.64-29.29,51.99-1.05,2.28-2.31,1.55,1.09,3.57l17.58-17.04-2.74,9.1c5,.94,8.97-7.1,11.29-11.13,5.28-9.18,10.72-28.29,2.07-36.49ZM113.27,559.59c-5.14,8.51.8,17.65-.79,27.64-1.04,6.5-4.46,12.31-6.09,18.32-.58,2.15-1.9,1.79,1.36,3.53,7.38-6.01,13.16-12.04,18.09-20.36l-1.32,17.46c4.68-7.27,10.02-16.31,10.71-25.03.39-4.89-1.92-9.69-1.46-13.78.53-4.7,4.09-8.86,3.9-13.62-.17-4.16-4.6-9.95-5.75-14.12-6.93,3.92-5.24,13.5-12.75,13.9l-3.1,9.86-2.8-3.81ZM134.87,609.81l13.44-19.04c2.4-3.4,12.01-11.02,16.01-13.52,10.89-6.82,35.98-11.78,34.8-29.77-1.13-17.26-17.4,6.89-26.81,4.09,7.53-5.88,20.13-10.24,21-21.44.19-2.4.85-4.34-1.93-5.59-4.06,5.76-10.43,14.2-17.91,14.96,9.65-7.09,18.31-16.85,15.39-29.63-3.35,4.98-9.27,14.22-16.55,10.39,9.38-4.27,16.4-15.2,14.48-25.71-1.35-2.32-6.25.33-7.23,2.25l-8.18,11.77c2.01-4.26,3.4-9.49,5.77-13.52,1.19-2.01,9.12-7.39,5.02-8.28-10.27,1.03-13.8,10.08-15.89,18.9-1.63,6.91,0,13.62-1.65,20.24-2.74.48-3.1-15.53-7.63-10.01l.2,23.16c-3.04.37-4.7-21.41-5.84-24.34-10.72,5.32-15.28,19.04-10.91,29.93,3.09,7.69,10.25,11.36,14.8,17.95,1.67,2.42,5.69,8.51,1.7,9.42-.58-5.85-6.79-11.68-11.28-15.34-1.87-1.53-1.91-1.67-3.1.54l-7.71,52.6ZM205.34,455.24l16.04-4.39-2.08-11.5c-.77-.54-16,6.55-15.67,9.14l9.85-2.24-8.14,8.98ZM435.64,251.51l.82-34.12c-2.65-9.31-11.43-12.95-16.66-20.87-2.34-3.54-10.63-27.76-12.42-27.52-1.47,7.95-.79,15.32,2.31,22.79l-8.53-8.77c-.83,16.19,9.27,27.38,15.82,40.96,2.07,4.29,2.47,10,4.29,13.29,3.33,6.04,10.46,8.53,14.37,14.24ZM225.27,458.28c-.79-4.37-25.27,4.37-27.47,10.58-2.93,8.26,17.44,18.87,19.65,16.1,2.2-2.76-15.5-9.25-15.68-14,.11-6.31,23.76-11.29,23.51-12.67ZM334.6,316.43c-9.06-23.21-23.37-23.98-21.51,3.19l21.51-3.19ZM315.91,408.11c1-11-15.41-19.09-24.7-21.14-32.1-7.09-62.31,23.37-57.42,55.27.38,2.46,6.07,22.4,8.37,12.59.66-2.8-1.99-5.7.54-8.18l5.31,2.83,1.49-7.25,2.96,2.28c14.24-11.4,29.48-12.6,46.89-10.52,2.29-2.02.91-12.98-2.08-15.11l7,3.1-3.78-9.59-10.33-9.53c15.44,4.27,29.29,19.42,22.43,36.05,4.23,4.65,4.43-5.24,4.43-7.79-.02-15.99-10.25-26.15-23.9-33.08l-21.45-5.49c17.17-4.65,32.43,3.35,44.23,15.55ZM419.11,168.04l-4.48-4.07c1.13,4.22.16,8.51,1.13,12.75,1.02,4.46,3.66,15.72,9.8,13.4,2.98-11.91,3.82-26.09-3.57-36.58l-2.89,14.5ZM432.4,138.8c-5.95,12.4-.75,26.53-1.77,38.6-.43,5.11-3.64,11.44-3.1,16.72.7,6.91,7.26,15.44,13.33,18.73l3.86-37.88c-.82-4.81-4.78-8.21-6.54-12.9-1.07-2.86-3-23.79-5.77-23.27ZM192.55,481.19c-1.87.42-.96,9.54-.79,11.45.26,2.97,6.08,36.39,7.85,35.86,6.13-15.46-2.25-32.51-7.06-47.32ZM386.67,211.42c-5.73,11.51,5.94,20.7,13.41,27.89-1.18,2.32-3.85-.75-5.12-1.81-3.94-3.27-6.93-8.02-12.07-10.33.68,9.66,3.9,22.52,16.06,20.52l1.86-4.19c5.79,7.98,15.32,12.8,24.44,7.14,2.24-2.13-4.74-7.55-6.09-8.69-11.31-9.59-25-16.63-32.5-30.53ZM446.87,128.75c-6.57,4.81-3.61,37.44,3.17,37.2,5.4-16.29,13.45-33.13,9.05-50.64l-9.22,24.78-3.01-11.33ZM397.28,204.2c-2.88.3,1.06,15.05,2.44,17.37,8.53,14.37,25.48,16.76,12.57-2.17-3.96-5.8-9.2-11.29-15.01-15.2ZM344.15,334.2c-3.83-5.22-8.26-4.9-14.25-4.52-19.93,1.29-36.15,17.77-37.72,37.74l15.35-20.43-7.92,20.27,1.41,4.56,6.18-11.08,10.99-8.06c-6.6,6.83-15.53,15.86-12.79,25.94,2.57-3.38,4.8-7.07,7.39-10.45,1.11-1.45,2.3-5.22,4.24-3.42-2.84,2.32-9.24,21.36-3.88,21.16l4.84-9.44c1.6,2.72-1.68,5.03-.17,9.19.75,2.06,1.52,3.23,3.56,4.23l11.98-22.02-4.19-4.68c1.06-1.63,10.04,4.51,11.28-.31l-6.92-5.81,12.01,2.05,3.45-3.1-16.47-7.97c4.73-2.38,11.01-.97,15.4,1.63l2.59-3.63c-6.7-6.04-15.22-7.96-23.98-7.74-.57-4.07,15.37-1.56,17.61-4.11ZM468.62,110.97c-4.21,1.46-6.56,19.64-2.18,18.7,3.44-5.47,5.17-12.7,2.18-18.7ZM221.17,471.94l7.2-5c-.05-3.68-1.4-4.77-4.91-3.61-6.95,2.3-6.43,9.76-1.87,14.42l10.03-7.64-10.45,1.82ZM352.68,283.39c-3.67,1.72-1.77,7.43,1.09,9.43,28.18-7.5,55.89,7.44,82.61,9.86,4.68.42,10.75,1.78,14.24-1.93l1.93,10.97-5.72,13.91c7.74.21,11.14-21.69,16.26-21.38,15.38,11.45,37.59,18.85,47.11,36.38,5.83,10.73,3.91,24.66,6.94,36.57,3.27,12.85,8.53,23.17,19.03,31.78-2.54-8.37-8-14.9-10.88-23.47-7.69-22.93-.87-44.4-22.84-62.96-12.37-10.45-30.1-14.26-37.33-28.09.49-6.45,30.88-39.14,37.48-45.7,17.97-17.88,39.45-31.7,57.9-48.97l-26.83,16.42c-28.08,21.75-53.18,47.27-72.46,77.3l-10.05-14.43c-.36,7.08,6.68,14.21.29,20.43-3.4-7.7-12.08-3.45-19.62-4.32-17.52-2.03-36.05-8.54-54.67-10.42-3.24-.33-23.38-1.89-24.49-1.37ZM384.05,246.4c-5.34.74,6.98,14.09,8.59,15.33,5.53,4.25,13.76,5.89,19.5,10.04l-19.06-4.25c-1.8,1.94,1.98,3.12,3.42,4.22,9.95,7.63,20.53,11.77,32.35,15.46l-6.94-5.79c2.34-.63,21.08.94,20.51-3.02l-18.45-3.79,11.66-1.2,6.57-2.51-30.11-12.09c.97-1.98,3.37-.18,4.89.35,6.11,2.15,13.66,7.5,19.88,2.41l-4.44-6.54c-15.81,5.57-34.01-1.22-48.38-8.64ZM488.12,98.98c-.65.12-2.76,7.09-3.26,8.67-.5,1.57-3.43,4.84-.25,5.39,6,1.04,8.26-11.53,3.52-14.06ZM493.25,109.96c-2.67,9.01-11.33,6.02-16.03,10.23-5.57,4.98-10.8,15.65-7.4,22.92,10.43-5.6,11.96-15.69,17.56-23.52.75-1.05,2.61-3.28,3.98-1.76l-16.96,29.28c-15.7-.5-19.87,16.48-18.83,29.27.16,1.93,2.49,4.07,1.93,5.29-2.06,4.45-6.15,4.98-8.65,14.17-.8,2.96-3.08,26.63-2.51,27.91.54,1.2,2.16,1.86,3.29,2.56,20.14-9.44,7.24-25.9,15.73-40.32,1.26,3.41-2.24,7.37-1.67,11.6.4,2.97,2.7,5.19,3.46,8.02l8.73-8.51c-6.66,14.93-17.44,27.57-29.02,38.91-.36,4.25,9.35,37.82,11.98,37.39l1.08-24.98,8.8,22.75c.79.85,1.62-.63,1.87-1.4,3.55-10.82-6.18-27.73.27-39.42,1.94,9.46-1.84,22.09,7.14,28.96,4.06-6.57,4.92-16.27,3.96-23.87-.29-2.29-6.02-16.53-2.43-17.37l7.06,25.21c7.06,2.77,1.88-7.33,1.97-9.26.24-5.24,2.99-27.12,4.37-31.76,2.58-8.71,9.93-17.13,5.7-26.88-3.22-7.44-2.99,5.45-3.36,7.05-6.19,26.3-21.5,3.15-19.68-10.63,2.25-16.96,18.28-19.04,22.04-34.01.41-1.64,1.15-3.45-.39-4.78l-8.52,6.86c7.01-8.42,14.09-21.23,4.54-29.92ZM172.46,577.46c-15.87,6.51-23.2,17.67-27.61,33.88.37,3.06,2.32,1.44,3.73-.1,5.22-5.71,8.52-13.27,12.23-19.92,2.46,1.58-5.85,17.08-.44,16.23,2.79-9.48,20.54-19,12.08-30.1ZM359.69,299.17c-2.48,2.4-1.23,2.05-.36,3.81.63,1.28,6.49,10.23,7.09,10.09l9.89-11.4-16.62-2.5ZM229.47,488.85c-16.48,16.4-20.08,44.49-.75,60.09,8.41,6.79,29.56,11.82,11.75-2.66l10.82.31c-3.4-2.9-9.17-4.55-9.74-9.66l11.13,5.08c4.27-3.97-4.96-4.67-4.33-9.48,3.13-.5,7.26,4.88,9.16.04-8.55-4.86-14.2-11.23-19.5-19.29l-4.58,7.79c-1.75-6.22,6.11-13.73-1.42-17.55-1.1.18-4.67,9.13-5.1,11.12-.77,3.63,1.58,8.1-1.51,9.97-5.98-13.36,12.43-24.11,4.08-35.76ZM319.48,460.39c-24.23-31.17-68.14-17.49-75.03,21.01-3.52,19.68,8.55,44.11,30.73,44.31-.38-7.76-8.43-6.71-13.63-10.5-9.82-7.15-14.91-18.99-10.21-30.69.57-1.43,3.21-7.54,5.49-5.81-10.59,13.26-1.73,36.94,16.54,36.52.15-6.96-6.65-8.85-11.31-12.6,3.75-1.94,9.68,5.52,12.91-.06l-6.47-6.44,7.26.24,8.43-13.19-6.39-8.05,12.84,2.6c-2.7-9.28-13.68-9.92-21.43-8.68,4.69-4.68,12.04-3.17,17.53-1.53,3.95,1.18,8.31,7.1,11.65,1.89-7.77-9.44-17.27-14.66-29.51-11.65-.26-3.08,10.42-4.45,13.28-4.33,8.71.36,19.36,5.7,23.38,13.66l1.81-4.28-8.88-11.74c7.32,3.44,13.2,6.6,18.43,12.98l2.58-3.65ZM212.27,570.56c-1.36-10.11-1.47-22.48-7.53-31.05.33,5.68,1.1,11.84,2.44,17.37.98,4.07,2.53,10.4,5.1,13.68ZM162.69,646.01c4.73-7.78,11.49-12.97,16.49-20.65s8-19.14,12.72-25.92c2.97-4.27,7.2-6.65,10.52-12.62,4.2-7.54,5.22-16.51-.53-23.45-1.18-.49-20.1,11.65-21.57,13.35-4.28,4.94-2.03,11.67-4.67,16.9-2.84,5.62-8.03,8.27-11.29,13.74-3.2,5.37-4.63,13.97-4.29,20.22,2.79-2.23,3.66-6.35,5.79-9.64.9-1.39,2.53-5.21,4.33-3.44-3.74,8.65-8.76,18.37-9.13,27.98-.07,1.73-1.7,2.12,1.63,3.52ZM398.9,310.73c-.58-2.92-4.58-6.34-7.61-6.8-11.78,1.59-5.8,13.94,2.38,17.11,3.53-1.11,5.86-7.09,5.22-10.31ZM308.02,437.52c5.19-6.76-1.32-17.73-6.04-5.96l6.04,5.96ZM384.34,329.4l-9,1.05c4.29,1.65,12.66,5.45,17,4.72,2.86-.48,4.96-3.04,7.99-3.75,10.39-2.45,23.11-1.32,31.33-9.08-2.77-2.98-2.87-1.64-5.12-1.34-9.65,1.29-15.64,4.04-25.99-.46l-5.28,6.53c-4.07-.26-11.97-9.37-16.2-3.23l5.27,5.54ZM416.5,422.06c5.21-16.6,5.13-33.94-8.8-46.48-37.17-33.46-88.63,6.99-73.41,52.57,4.5,13.47,16.52,29.65,32.04,28.48-10.5-6.37-21.47-15.47-22.18-28.55,6.11,8.75,12.05,16.51,23.18,18.62,2.2.42,2.04,1.25,3.49-1.65-9.59-5.97-21.65-16.7-17.97-29.26,5.25,10.58,12.33,25.8,26.5,22.41-7.66-6.73-16.27-14.22-15.17-25.44,6.3,9.23,10.25,18.47,22.85,19.77l-9.67-12.34c2.79-1.52,5.96,3.04,9.79,3.73,4.85.88,7.01-2.6,7.17-7.2.14-4.17-3.77-5.57-2.89-8.65,2.95,1.73,6.21,5.5,7.2,8.7,1.04,3.35-1.69,6.89.24,9.41l4.26-14.2-3.53-12.86c7.53,5.71,7.16,12.72,6.76,20.95-.17,3.46-.47,4.02,1.76.78,3.34-10.66,3.04-20.98-1.9-30.98l-9.36-12.94c9.16,4.93,13.8,13.95,16.5,23.57l3.16,21.56ZM518.04,134.82c-12.46,13.03-9.63,31.45-14.03,47.19-2.64,9.43-8.44,18.7-9.86,28.67-.67,4.71,1.09,22.94,5.1,25,2.05,1.05,2.73-.26,2.82-2.62.44-11.94-6.33-19.58,1.74-33.77,1.74-3.07,2.28-2.94,1.74.78-.76,5.26-2.11,24.36,1.07,27.9,2.37,2.63,14.99-6.95,16.8-9.37,5.27-7.03,2.2-23.36,4.58-33.17,5.43-22.39,20.73-32.96,33.89-49.99,5.59-7.24,6.95-12.96-3.15-5.52-4.27,3.15-8.02,6.84-11.65,10.67-3.1-1.33,11.28-14.88,4.14-13.63-8.95,5.82-14.52,13.87-18.6,23.68-2.18-5.93.45-12.96,2.16-18.71-2.05-1.5-5.25,2.33-6.13,3.72-5.49,8.72-10.34,27.03-9.92,37.35.36,8.75,6.36,18.81-.34,26.48-10.25-17.29-2.12-41.32.91-60.08.38-2.38,2.44-2.89-1.27-4.58ZM221.65,562.5c-3.02.56-1.45,2.29.09,3.72,5.07,4.67,11.62,7.17,17.48,10.49,4.22-8.31-12.51-10.93-17.57-14.2ZM190.08,667.18c8.3-25.38,36.27-51.21,21.46-78.66-15.68,4.66-20.53,22.25-27.42,34.92-6.17,11.33-16.56,19.72-9.66,34.56,2.28-4.34-.75-7.68,1.72-12.69,1.38-2.8,3.99-6.03,5.97-8.59,1.12-1.45,2.28-5.22,4.23-3.42-5.6,8.58-5.87,19.76-6.21,29.68,1.02,3.35,2.69-1.7,3.21-2.71,2.95-5.75,4.86-12.08,9.03-17.19l-3.66,19.54,1.34,4.57ZM408.75,308.22c-1.52.71-2.65,3.19-1.93,4.94,2.76,6.77,22.19-.06,21.81-2.16-2.58-1-18.97-3.21-19.88-2.78ZM389.17,338.59c-7.28,3.33,5.78,24.3,13.8,11.36l-5.7-4.94c10.55,1.59,12.79,2,19.79-7.2-.45-3.28-20.34.93-23,1.34-1.68.26-4.62-.69-4.89-.56ZM235.28,607.07c6.16,5.58,16.2,11.44,23.34,16.48.57.41,2.97-.18,3.94.92l.87-1.21-19.04-13.44c-.25-.17-3.98-4.52-2.57-5.48.7.64,16,12.49,14.01,6.2l-12.26-8.68,3.73-.1c-1.06-7.01-9.53-7.36-14.29-11.04,2.75-2.73,8.22,2.85,10.4.89,5.04-4.51-16.72-15.94-20.42-12.27l-1.62,4.78c10.73,6.34,3.79,13.79,13.9,22.94ZM289.92,495.15c-24.84,48.73,47.1,88.38,74.96,38.86,27.05-48.08-48-91.75-74.96-38.86ZM275.44,548.88c12.25-8.32-1.1-12.63-8.95-4.95-17.56,17.2-16.86,48.96,3.45,63.71,3.15,2.29,17.78,7.74,21.15,7.06,8.64-1.74,14.84-14.9,12.59-23.28-.31-1.14-2.68-2.04-2.77-2.62-.38-2.5,13.42-12.78-.52-20.48.33-1.56,17.25,4.94,11.05-1.39-1.69-1.73-11.77-5.37-15.1-7.68-3.12-2.17-10.18-10.38-11.94-11.1-2.45-1-6.08,3.98-8.95.72ZM207.05,703.1l1.32-20.18c5.95-21.34,26.76-39.56,12-62.44-7.19,1.51-10.73,9.63-12.16,16.07-2.1,9.48,2.5,14.98,2.58,23.29.14,13.8-10.5,28.96-3.74,43.25ZM547.9,157.72c-9.01,10.75-16.24,31.07-14.38,45.1.3,2.29-.03,6.84,3.2,5.91,3.01-.86,17.2-10.36,19.39-13.04,5.38-6.58,5.19-13.42,8.57-19.83,11.33-21.47,33.48-23.97,52.5-35.5-11.91-1.4-23.02,3.06-33.77,7.44l9.64-9.75c-14.45,1.09-26.26,12.23-33.6,24.13l4.83-12.17c2.65-5.11,7.02-7.88,11.06-11.49.83-.74,5.11-3.68,1.54-3.62-12.8,3.64-20.3,15.47-27.41,25.78l-1.56-2.97ZM271.67,658.51c-4.55-21.39-27.14-30.91-42.22-44.49-4.36,26.41,9.27,54.02,29.84,69.84-1.44-7.92-5.14-15.47-10.66-21.37l9.46,4.84c2.96-.06-11.97-18-14.08-19.15,3.56-2.76,8.66,8.61,11.17,2.41l-13.29-17.69c12.58,5.13,20,16.96,29.79,25.62ZM207.14,653.47c-10.25,8.65-18.48,24.68-13.97,37.99,2.24-2.64.44-6.32,1.13-9.36,1.03-4.51,2.38,3.32,4.16-.7,2.56-5.78,6.48-15.98,8.4-21.96.64-2,2.21-4.04.28-5.97ZM443.39,415.27c59.01,21.95,76.19-62.66,20.71-76.98-16.83-4.34-41.73,2.53-47.27,20.61-1.05,3.43-2.65,9.35,2.88,9.12,2.03-2.2,2.06-5.91,5.38-2.47-2.6,4.07-4.41,9.17.96,11.71.49-3.51,1.49-6.55,3.17-9.71.84-1.58,4.48-8.39,6.85-7.12-7.66,11.25-7.17,31.25,8.26,35.25l-9.13-12.97,3.58-13.01c1.41,4.06-1.91,7.46,1.03,12.21,5.05,8.16,13.83,10.97,22.07,6.02l10.47-11.1c-1.35,4.01-1.52,7.14-3.91,10.97-3.31,5.31-6.93,6.1-10.2,10.34,5.2-.57,11.45-3.87,14.83-7.83,4.23-4.94,4.24-11.77,7.92-16.59,2.48,30-30.34,43.78-49.09,18.72-2.39,2.39-1.53,2.6.23,4.75,12.82,15.71,38.2,13.56,50.59-1.35,3.25-3.91,3.87-8.62,7.6-11.86-.43,16-12.99,28.01-28.12,30.84-6.59,1.23-12.56-1.06-18.8.44ZM567.1,313.02l14.31-20.27c.42-.59,10.04-8.54,10.54-4.51-10.18,3.3-8.59,13.19-11.77,18.67-3.22,5.55-46.81,18.74-55.93,17.28-.33,2.34,3.18,2.32,4.75,2.54,21.52,2.93,47.5-14.25,68.76-20.52,19.97-5.89,40.32-5.85,58.45-17.76,3.3-2.6-2.9-2.77-3.17-2.66-2.72,1.12-5.29,8.26-8.96,4.24l13.71-14.24c-5.62-.67-11.12,2.17-15.17,5.84-2.83-3.66,7.88-9.23,7.8-11.04-11.25,2.06-24.7,12.06-23.15,24.83l-9.45,1.82c.19-11.75,8.39-21.02,15.98-29.18l-13.92,6.73c3.4-6.26,6.87-12.43,12.74-16.8.96-.72,14.59-5.84,8.54-6.81-7.79-1.25-23.24,17.52-26.6,23.99-3.72,7.16-2.82,23-13.11,17.91l11.4-21.39-11.4,5.79c-9.51,2.23-19.05-4.39-13.83-14.4l-10.3-3.61,16.26-2.6c1.53-.61,14.87-7.66,9.28-8.79-4.1-.82-16.06,1.09-22.62.25-11.17-1.42-18.89-7.5-30.28-.25-5.84,3.72-2.26,11.35,2.05,15.32,2.34,2.16,8.5,2.57,7.52,5.6-14.12-2.97-17.72-18.17-31.12-20.82-10.27-2.04-22.67,5.45-28.35,13.84l11.54,1.27,10.35,6.79c-11.04-2.93-23.99-6.64-32.26,3.93-1.46,1.86-1.71,1.95.56,3.15,12.06-2.53,24.69-1.87,36.46,1.84-15.84,1.26-33.78-1.88-46.95,9.16l17.1-.8c.17,1.58-12.31,5.76-14.37,7.38-1.56,1.23-1.45,2.66.53,3.08.78.17,14.2-1.23,15.92-1.55,6-1.14,12.71-5.18,19.09-5.01l-22.39,10.9c-3.68,2.82,18.06-.39,19.22-1.17l16.46-7.7c-4.91,7.92-14.8,10.59-21.61,15.45-.99.7-5.54,2.55-2.46,4.32,2.37,1.37,17.5-6.07,20.05-8.76l20.57-21.43c-8.26,14.36-16.09,24.61-29.67,34.26,8.9-.79,19.06-7.37,25.8-13.07,2.42,1.27-.77,3.45-1.9,4.61-3.59,3.69-9.31,5.42-11.23,10.03,8.87-1.38,19.71-5.89,25.89-12.57,7.01-7.57,9.24-18.23,14.76-26.9,1.34-2.1,1.07-4.07,4.75-3.95l-13.82,34.2,4.67,3.52ZM228.14,662.78c-11.29,1.66-18.5,17.21-15.75,27.53l5.19-7.36c-1.72,2.94-4.6,21.91-.55,21.67l3.34-8.66,2.78,13,4.98-46.18ZM574.61,218.93c.4,3.02-33.09,8.14-37.57,10.48-2.71,1.41-16.83,11.31-12.51,14.82,14.11,6.29,24.21-2.04,37.18-3.16,5.85-.51,11.48.86,17.32.33,12.38-1.11,23.68-7.63,30.91-17.77l-8.12-.22c-3.13-.99,20.01-9.73,19.76-13.65l-14.8-7.69c8.29-1.13,17.02-4.02,22.39-10.89-18.15,2.97-35.32-3.28-52.5,5.25-4.77,2.37-24.73,15.1-24.81,19.41-.13,7.52,18.24,1.37,22.74,3.1ZM634.88,149.21c-10.44-2.21-21.4,1.15-30.92,5.21-5.12,2.18-22.28,9.75-25.94,12.2-7.4,4.94-7.53,11.04-9.15,18.79,1.75,1.89,2.88,1.22,4.91.47,9.19-3.39,22.79-15.13,33.22-20.12,8.49-4.06,18.37-7.19,27.68-8.44.18-2.86-3-1.51-4.55-1.38-6.1.51-12.2,2.97-18.41,2.66l23.18-9.39ZM234.67,669.23c-2.71.36-3.71,29.65-3.35,33.48.6,6.5,2.01,14.05,6.96,18.75,3.88-.6-4.36-19.02.32-20.01l3.36,6.97-2.72-22.19c2.21-1.38,6.03,11.34,7.34,5.21.99-4.65-7.33-22.83-11.9-22.22ZM382.57,462.99c-29.97,56.92,63.13,93.37,77.63,29.77,10.7-46.96-54.07-74.53-77.63-29.77ZM645.65,167.84c-1.93-2.16-3.83-.76-6.02-.58-10.48.82-42.07,6.15-47,15.57-3.47,6.63,12.34,6.78,17.37,6.62,10.48-.34,19.75-3.87,27.84-10.54l-13.72-1.41,21.52-9.66ZM348.07,563.37c-17.21,7.03-25.28,4.32-31.17,25.31-11.89,42.37,44.61,74.59,69.58,34.94l-5.17-1.86c-5.08,5.85-13.6,15.19-22.2,11.97,5.46-2.01,17.01-11.45,15.92-17.3-.28-1.52-1.56-2.77-2.5-1.72-2.53,4.53-6.91,7.86-12.27,6.97l9.01-10.19-10.46,1.81,5.18-7.38-9.59.58c7.31-6.61.82-17.47-4.48-23.26-2.09-.72-8.64,3.14-10.12,4.84-4.43,5.11-1.61,10.84-5.96,14.94-2.3-11.1,4.6-22.57,15.48-25.86-4.96-3.32-12.66,2.8-15.65,6.46-8.53,10.4-7.73,25.4.65,35.49l14.43,10.99c-38.39-8.54-33.2-52.91,1.64-62.34l-2.34-4.39ZM304.25,672.31c-8.44-7.69-11.59-21.3-6.58-31.77.86-1.79,17.6-23.93,6.9-19.56-15.03,11.21-19.16,36.52-9.37,52.35,21.15,34.18,72.95,20.47,79.38-17.47l-3.48-2.62c-6.43,14.91-11.44,31.99-30.32,33.8,4.07-5.64,10.77-8.18,14.88-14.34,2.77-4.15,4.83-10.95,4.69-16-6.61,6.8-10.97,17.06-21.74,17.76,2.69-4.48,9.11-6.13,12.23-10.74,1.84-2.71,2.4-5.73,1.63-8.91-3.8,3.01-5.83,8.27-11.48,8.44l5.45-9.02c-3.84-4.16-6.66,4.83-11.32,3.04l2.31-7.09c-11.53-4.13-20.02-12.86-27.8-21.89-9.65,6.15-12.63,19.65-9.39,30.12.56,1.82,7.75,13.35,4,13.87ZM371.15,546.87c-19.6,32.4,12.14,77.81,49.39,64.57,24.36-8.65,33.36-41.96,18.4-62.14-11.55-15.59-16.53-7.71-31.1-11.5-5.85-1.52-13-6.56-18.29-5.95-5.85.68-15.38,10.02-18.41,15.02ZM624.47,382.99c-15.99-4.57-32.2-8.9-47.47-15.7-16.58-7.39-27.49-15.14-42.25-25.48-4.2-2.94-8.02-10.95-14.17-4.58,18.36,21.99,49.59,34.02,76.7,41.31,8.26,2.22,18.96,5.72,27.19,4.46ZM626.38,218.66l-32.38,25c11.4,1.29,31.8-10.58,34.06-21.54.47-2.25,1.03-2.06-1.68-3.46ZM499.07,469.34c-6.32-14.36-19.53-29.07-36.83-26.04,15.94,4.67,22.33,12.58,32.63,24.07,1.05,1.17,2.84,4.47,4.2,1.97ZM595.35,332.98c-10.18.39-19.7-3.46-30.15-2.85-2.89.17-20.34,3.25-19.98,6.1l24.98,1.07-11.42,5.73c-4.39,4.25,10.31,3.67,12.44,3.27,5.38-1,11.04-5.79,16.83-5.6-4.53,5.52-14.13,6.84-16.43,14.16,12.96,2.26,20.89-10.25,32.09-14.14-3.4,6.21-10.72,8.56-14.81,14.36-1.74,2.47-.64,3.48,1.79,4,4.15.88,20.36-14.32,24.48-17.63,2.42,1.27-.77,3.47-1.9,4.63-4.16,4.26-17.87,12.47-11.27,19.19,5.44-6.36,11.37-12.13,18.08-17.15,4.45-3.33,25.12-16.77,29.22-18.25,3.36-1.22,6.44.59,10.52-1.59,8.44-4.51,15.77-17.03,27.52-18.7-9.08-3.28-19.68.15-24.42,8.51l-8.59-6.07,21.95-10.26-17.1.8,16.94-17.49c-19.65,2.64-29.78,22.4-51.28,21.8-4.34,3.96,6.64,7.05,5.57,10.32-6.85-1.41-28.66-8.98-33.67-4.38-2.49,2.38,0,2.56,1.75,3.98,3.4,2.78,6.3,3.54,9.59,5.44,1.45.83,5.2,1.5,3.32,3.64-10.39-3.56-21.62-9.69-32.77-5.32l-1.76,2.1,1.68,3.88,16.8,6.45ZM539.65,372.78l-7.24-10.6c.03,12.94,5.27,26.42,17.48,32.59l-7.04-.39c.36,6.96,6.24,11.27,11.69,14.68l-1.1-6.26,8.97,8.14-.23-7.49c6.33,6.96,9.33,12.74,19.67,13.85l.13-5.39c3.86,1.95,7.74,6.54,11.49,8.08,1.1.45,2.39-1.78,2.96-1.35,7.73,5.83,12.41,14.68,24.14,16.83-2.22,2.14-4.02.17-6.03-.6-7.45-2.85-14.58-8.02-22.44-11.25-10.49-4.31-23.22-8.12-34.47-5.89,3.13,2.29,9.13,13.96,9.89,4.23l11.43,9.88,1.36-4.53c1.8-.12,10.25,13.76,16.1,5.86l-1.93-5.06c8.18,10.3,22.3,10.28,32.78,17.55,4.5,3.13,6.71,8.34,11.08,11.55,2.69-2.25-.12-5.42-1.27-7.84-8.38-17.63-26.58-24.5-39.7-38.5-13.6-14.52-15.18-33.45-38.64-36.55-1.34-.18-3.66-2.01-4.12.75-.61,3.64,7.4,15.89,10.21,18.75l10.3,9.54c-7.44-4.74-13.94-9.8-19.63-16.56-6.56-7.79-8.44-18.98-15.98-24.22l.14,10.22ZM469.46,453.96l-1.71,2.44c8.93,1.68,14.03,9.73,20.88,14.72.73-2.58-3.88-7.77-5.56-9.27-4.03-3.59-8.45-6.31-13.6-7.9ZM488.39,432.36l-1.71,2.44c5.27,1.01,14.17,6.97,16.24,11.76,1.69,3.91-3.87,11.44,3.57,12.33l1.01-6.65c6.3-.64-.2,20.3,4.9,19.11l5.72-10.68,2.16,12.55,6.37-19.42,2.14,12.56c4.25-6.8,5.72-14.53,4.77-22.38,5.99,7.56,2.84,17.79.17,25.87,8.95.04,8.98-13.35,8.43-19.8l4.9,12.63c3.55-1.16,2.68-7.89,2.39-11.2-1.76-19.85-26.33-41.58-46.8-36.72,8.79,3.21,17.31,6.27,22.95,14.4-.68,3.29-16.93-12.41-14.87-5.01,4.15,3.85,11.22,9.23,11.28,15.32-6.35-6.89-12.4-10.66-21.25-13.66-1.72-.58-5.9-2.66-7.14-.86,10.38,6.33,23.83,13.16,23.05,27.31-7.56-11.33-14.24-17.98-28.27-19.91ZM513.33,545.65c-.72-2.36,2.1-12.79,1.68-18.09-1.34-16.91-11.37-29.32-27.85-33.49-3.03.39-1.46,2.32.09,3.73,3.47,3.17,8.14,5.21,11.8,8.77,7.7,7.49,12.81,21.46,5.3,30.9-1.28-2.56-.19-5.56-.96-8.99-1.47-6.55-5.78-17.85-11.34-21.79-2.16-1.53-11.74-4.9-11.46-.7,7.9,1.33,15.46,9.8,14.95,17.9-5.2-6.74-8.48-10.46-17.21-12.09l-1.71,6.2,6.71,10.15c-7.72-2.29-11.03-7.55-13.36-14.93-3.47,3.76-1.4,9.16.23,13.44l11.98,13.56c-10-2.95-13.64-8.46-19.82-15.46-1.18-1.34-3.46-3.44-3.94-.4s6.14,13.36,8.62,15.78l17.31,12.64c-15.31-1.6-21.56-9.21-32.01-18.76-2.2-2.01-1.97-.99-3.39,1.13,4.79,6.87,10.28,16.33,17.34,21.11,5.05,3.42,11.84,3.56,17.4,5.3-9.43,4.17-18.29-4.65-27.38-5.53,7.82,9.72,24.72,16.15,36.14,9.37,4.15-2.47,18.11-15.58,20.87-19.75.22.74,1.24,2.97,1.57,2.95,20.82-17.42,3.33-63.87-24.19-62.16,5.58,3.63,11.64,6.29,16.52,11.17,10.55,10.55,14.36,35.55,6.1,48.04ZM388.24,652.47c-18.46,30.25,1.9,64.87,37.61,64.88,9.65,0,24.48-2.79,27.96-13.07l-16.87-.89,20.22-7.79c-7.23-1.62-12.02,1.23-20.01-.36-12.56-2.5-22.71-9.23-28.5-20.95l-3.44-17.2c-7.59,15.08,1.29,33.08,15.59,40.47-2.03,1.73-8.08-1.94-9.75-3.1-10.18-7.07-17.94-20.64-14.41-33.21,1.29-4.6,6-8.79,3.81-13.05-17.15,21.23-4.54,47.39,16.74,59.69-1.31,1.64-7.16-1.78-8.51-2.59-13.93-8.35-21.8-20.63-22.2-36.9l1.76-15.93ZM550.41,422.73l7.14,19.8c1.43,3.34,0,11.07,4.12,11.16l1.11-9.35c2.43,6.89,3.3,15.08,10.76,18.62,2.52-17.99-8.33-31.42-23.13-40.23ZM447.07,605.64c-8.85,14.54-23.44,24.36-40.68,23.74,1.46,24.93,33.01,48.64,54.8,30.07,5.15-4.39,16.37-17.04,20.91-22.66,4.59-5.69,11.55-12.51,3.84-18.43-2.09.42-1.9,11.46-6.43,6.5,5.14-2.23,5.03-27.93.71-27.1-.55,5.72-1.78,11.2-4.41,16.39-1,1.96-4.68,9.22-7.48,8.31,4.92-2.85,4.74-29.8.33-29.19.41,13.43-5.21,32.18-19.71,35.77,6.71-8.38,11.22-16.42,11.14-27.32-.01-2.16,2.12-3.05-1.55-4.55-2.85,13.65-10.86,29.87-26.48,30.98,4.39-7.17,17.21-12.37,15.01-22.53ZM370.1,691.2c-10.63,26.88,30.83,51.65,54.01,40.9l.27-4.38-17.11.78,4.07-4.5c-12.7-5.08-22.82-12.44-31.94-22.53-.4,5.09,3.61,10.05,7.58,12.71-1.75,1.97-7.66-3.25-8.89-4.41-5.41-5.06-5.81-11.98-7.99-18.57ZM589.86,382.48c-2.34,2.15-.68,3.7,0,5.92,4.19,13.91,15.14,28.39,27.69,35.68,1.02-2.04-.71-3.93-1.48-5.67-5.59-12.58-14.15-28.95-26.2-35.93ZM460.09,571.54c-1.97,4.55,11.75,6.14,14.01,6.29,4.88.32,8.07.18,12.54-2.26l-2.78-3.83c-3.97,1.89-22.53-3.06-23.77-.2ZM655.58,338.14c-10.95,3.86-26.57,9.17-36.52,16.59-4.8,3.58-15.32,14.56-3.83,15.34,2.76.19,17.63-12.87,21.68-15.11,2.49,1.38-.82,3.28-1.91,4.54-3.92,4.53-13.14,10.91-6.2,17.32,8.55-8.65,16.16-17.52,26.61-24.05,3.96-2.48,8.57-3.06,12.03-5.35,10.61-7.02,18.95-18.8,33.63-20.79-6.22-4.08-13.66-1.46-19.83.7l11.73-10.12c-15.85-4.96-28.16,17.68-37.39,20.93ZM535.31,504.08c3.26-7.4.92-14.88-8.37-14.17l8.37,14.17ZM542.73,522.23c11.87-7.68,7.52-36.99-6.06-38.36-6.03-.61,2.97,7.09,3.56,8.05,8.03,12.96-3.32,18.9,2.5,30.31ZM560.74,488.9c-3.06-2.05-5.88-4.5-9.17-6.23-1.66-.87-7.06-4.22-8.52-2.58,8.73,6.97,15,14.51,13.98,26.19-1.21,13.73-10.46,21.42-15.57,33.45,10.26-2.21,18.02-13.92,21.89-23.19l-3.4,14.06-6.41,10.28c2.46.96,7.07-4.57,8.17-6.18,6.83-10.06,7.15-22.45,5.39-33.91,8.97,12.98,4.93,29.51-3.59,41.62,16.38-3.11,14.52-24.42,15.16-37.14,12.17,14.16,2.31,27.35-3.16,41.02-.87,2.18-2.37,1.56,1.12,3.54,24.48-14.8,15.03-50.34-4.21-65.62-3.09-2.45-13.9-9.59-17.6-7.73-3.62,1.82,7.64,9.78,5.93,12.42ZM415.05,664.03c-6.56,10.93,8.04,22.38,16.92,26.25,2.83,1.23,16.18,2.96,15.98-1.17-16.87.51-25.26-12.03-32.91-25.08ZM674.4,434.81c-5.19-4.02-10.85-5.5-16.18-9.61-9.31-7.18-18.2-24.24-25.51-28.92-5.61-3.59-15.45-1.64-21.87-1.76,8.34,21.91,26.07,42.32,45.65,55.22l-18.5-25.91,13.52,9.51-6-9.72c8.31,4.66,19.16,12.49,28.9,11.2ZM614.03,469.48c-9.78-9.22-25.79-16.5-36.24-25.58-2.39,13.29,10.69,26.31,16.71,37.59,3.54,2.62,2.38-.67,1.29-2.39-2.92-4.61-8.53-9.33-8.11-15.31l14.25,13.71-3.39-13.42c5.47,9.42,14.21,16.05,23.18,21.88,2.68-2.44.99-2.27.36-3.86-1.06-2.68-6.11-10.78-8.05-12.6ZM621.95,462.17c-7.14-5.28-10.05-15.42-17.93-19.92-3.93-2.24-14.44-4.41-16.62,1.07l8.61,6.07c.2-1.2-.37-4.92,2.27-2.02,5.13,5.65,9.47,13.87,16.22,18.79l.79-4.98,21.11,22.23c-.07-5.54-9.05-26.71-14.33-26.64l-.13,5.39ZM428.54,673.57c-4.28,3.73,5.72,7.38,8.47,8.38,3.56,1.3,17.46,3.2,19.27-.75,1.14-2.49-.45-2.6-2.6-2.77-8.61-.68-16.94.78-25.14-4.86ZM640.17,373.8c1.11,7.79,25.5-13.23,27.16-14.5,4.43-3.4,13.32-4.08,11.72-13.25-2.99-3.24-20.72,9.71-23.75,12.3-5.48,4.67-9.95,10.48-15.13,15.45ZM495.36,605.93c2.53,14.66,15.29,27.19,29.04,32.09,14.95,5.32,16.06-2.83,27.52-9.34,7.13-4.05,20.44-5.21,24.25-10.19,7.2-9.43,4.92-32.08-.49-42.05-23.88-43.97-87.84-14.15-80.31,29.49ZM708.87,346.84c-5.73-1.04-13.22-.29-18.43,2.53-4.16,2.25-33.18,24.07-34.4,26.51-.66,1.32-1.84,5.91-.86,6.64l24.45-17.66c2.48,1.32-.83,3.13-1.97,4.22-4.01,3.85-8.85,6.55-11.4,12.09,1.57,10.78,41.26-14.94,46.67-14.01,5.59-3.69-10.59-2.57-12.26-2.25-3.82.73-7.19,3.83-10.7,3.55,2.26-3.24,5.58-5.33,9.01-7.1,1.29-.67,17.37-5.02,14.06-6.04l-10.83-.25-12.82,3.78,19.48-12.01ZM712.13,334.43c-.52-2.69-32.56-1.78-31.92,8.73,1.95,5.86,28.05-6.29,31.92-8.73ZM702.45,415.93l-25.18-17.78c-5.33-3.76-30.45-3.53-35.66-.3-2.26,1.4-.44,2.17.07,3.18,2.78,5.45,7.82,9.21,12.88,12.37l.48-3.32c8.04,4.42,16.48,15.4,25.95,12.8l-13.36-14.95,15.25,7.04-3.55-7.98c6.49,3.56,15.47,10.95,23.13,8.95ZM612.04,442.32c-7.64,1.13,10.97,9.6,11.82,10.27,5.02,3.9,9.43,12.31,12.46,17.9,3.85-.68-3.63-14.17-4.96-15.86-5.3-6.74-11.9-8.69-19.32-12.31ZM482.05,670.81c4.59-11.05,9.26-18.19,20.28-23.1,3.24-1.44,9.77-.13,7.76-4.94-4.62-5.33-13.27.39-17.7,3.65-27.57,20.28-32.51,62.2,1.66,78.46,11.57,5.51,28.77,2.42,6.88-3.9l-10.81-9.46c13.49,6.39,29.48,10.08,40.53-2.7-17.71,3.62-30.57,9.63-44.48-6.89-2.96-3.52-7.05-12.87-3.11-15.65,2.72,23,34.42,30.44,48.89,14.24l-2.21-3.38c-5.86,4.46-15.56,10.91-22.7,6.04,7.4-2.58,16.01-1.2,19.85-9.9l-11.68.96c-.21-2.29,8.73-2.3,10.68-7.7.26-.71-.79-14.09-1.05-15-1.76-6.2-7.75-8.17-13.53-9.26l-14.95,3.91c5.03-7.1,11.94-11.22,20.64-8.49,3.85,1.21,7.7,6.86,9.53,2.21-6.82-10.51-22.05-8.86-31.1-2.13l-13.38,13.03ZM437.95,728.06c-2.74,10.22,4.62,22.79,13.42,27.89-1.93,1.9-7.28-3.13-8.94-4.4-3.2-2.46-5.32-5.17-8.25-7.74,3.62,27.65,41.85,41.25,62,21.67-.56-3.77-17.27,5.4-20.43.27-.27-.97,17.38-4.76,17.16-9.95-5.85,1.75-12.62,5.1-18.6,1.57,8.67-2.46,23.31-7.73,23.21-18.54-2.36-1.75-14.6,18.47-20.9,10.07l10.17-6.63c-4.38-.13-8.74,3.65-12.91.07,5.04-1.68,10.08-2.06,12.7-7.57l-11.44-.7,6.16-4.86-9.83-6.93.23,7.49-8.46-11.47v5.92s4.99,10.45,4.99,10.45c-7.06-3.58-10.26-8.9-12.49-16.16l-1.75,6.23,6.59,15.57c-7.77-.94-8.92-7.33-14.3-11l3.71,11.23,6.98,10.11c-6.24-2.13-10.27-5.47-13.66-11.12-1.22-2.03-3.53-11.79-5.35-11.47ZM738.14,391.45c-19.77-5.33-41.01-3.89-60.89.26,6.03,13.97,27.01,24.14,41.59,19.26l-19.36-9.07,22.54-.67-9.46-4.82,25.57-4.95ZM736.63,370.13c-1.12-3.74-14.92-.26-17.7.52-3.9,1.11-23.73,8.96-23.11,12.97,3.75,3.87,8.28.55,12.51.68,12.32.38,21.81,3.46,34.39-.81,2.01-.68,7.79-2.79,7.69-5.49l-14.67,2.51,6.43-6.51-14.4.9,8.87-4.77ZM595.58,622.12c21.93,6.3,43.94.66,55.02-20.82,15.65-30.35-21.48-71.3-52.27-50.87l16.57-.85c12.1,1.77,21.85,9.93,26.92,20.86,1.37,2.96,5.18,10.51,1.36,11.64-1.67-14.64-14.44-28.59-29.71-28.32-4.59.08-15.16,1.72-16.05,7.06,11.54-2.7,24.78-3.42,32.1,7.97l-19.86-5.81-5.47,2.63c8.11.79,17.22,5.02,20.07,13.26-17.65-13.98-31.49-3.15-12.43,12.4-.99,1.85-6.48-1.04-7.38-1.66-2.97-2.06-4.25-4.61-6.99-6.64-.27,12.99,13.29,17.25,24.2,15.23-7.49,5.83-17.57,3.68-24.12-2.29-6.03.54,5.66,14.24,18.7,11.44,3.52-.75,5.76-3.79,8.6-3.22-5.05,8.58-14.92,7.57-23.17,9.39l13.68,1.19,16-4.14c-7.83,11.26-19.74,9.3-31.2,10.03-1.97.13-3.08-2.24-4.55,1.53ZM556.02,649.42c-29.46,25.38-18.71,68.01,22.16,69,6.26-6.86,9.74-13.21,17.2-19.13,12-9.53,19.5-3.32,20.86-21.93.71-9.75-1.98-19.85-7.74-27.8-26.77-36.93-82.46-7.46-73.43,34.77,1.79-6.91.96-12.93,4.7-19.68,1.96-3.52,5.12-7.6,7.89-10.57,1.2-1.28,6.28-5.6,8.35-4.65ZM541.85,717.22c-36.08,12.98-46.32,58.48-9.31,77.62l-2.97,1.56c13.23,9.88,33.69,9.01,46.83-.62,4.74-3.47,11.25-8.04,9.27-14.95l-13.98,12.64c-1.74.09-12.28,6.87-12.91,3.3,7.93-3.93,27.95-14.43,19.43-24.91l-10.25,9.31c4.67-5.81,8.97-12.92,5.13-20.3l-9.9,11.41c7.05-8.31,7.49-11.59,1.38-20.21l6.55,3.72c9.06-10.59-7.28-7.59-11.25-15.32l8.71.67-10.16-9.05,12.77,5.35c5.2-9.49-11.76-10.37-19.2-13.99-3.21-1.56-5.04-3.6-7.61-5.82l-2.55-.41ZM628.09,654.25c.72-4.35,2.39-10.72-.72-14.45-7.07-8.51-6.1,14.62.72,14.45ZM646.8,625.16c-4.98,4.42-1.43,8.84-1.59,13.75-.27,8.26-.63,12.36-4.14,20.13-1.59,3.53-8.83,8.88-3.82,10.9,7.61-9.55,13.64-19.41,13.37-31.97-.03-1.57-1.69-13.38-3.82-12.82ZM668.17,699.13c36.06-20.71,24.81-69.26-13.12-79.35-6.34,3.61-1.61,7.44-1.27,12.26,1.25,17.7-.04,32.32-12.97,45.95,15.87-1.94,21.34-20.95,18.84-34.54,2.18-.32,3.42,9.01,3.47,10.72.34,13.42-7.33,20.98-15.2,30.67,16.57-4.61,23.2-21.85,22.07-37.77,6.48,9.21,2.39,23.41-3.14,32.13-1.99,3.15-7.13,5.76-7.37,10.12,9.05-3.23,16.11-12.66,18.97-21.6.55-1.73.89-18.8,4.06-13.65,3.96,6.42-.85,22.69-4.64,28.85-3.43,5.57-7.31,8.26-10.86,12.68-1.87,2.33-1.1,2.11,1.16,3.55ZM588.91,720.85c-17.64,29.74,1.37,66.81,37.54,64.75,52.12-2.97,59.97-77.27,5.81-85.2-16.55-2.42-34.83,6.08-43.35,20.45ZM573.73,814.7l20.27,14.31c.52.37,10.61,2.7,12.39,2.99,23.26,3.91,48.4-9.91,48.95-35.13-3.78-.14-3.65,1.68-5.15,4.08-5.37,8.53-8.44,18.39-19.51,21.74-.72.22-4.18,1.23-3.33-.53,6.46-4.21,18.55-14.13,11.86-21.98-4.91,7.82-9.76,14.62-19.23,16.81-3.51.15.7-3.09,1.48-3.93,2.16-2.33,11.5-9.47,6.05-11.94-8.96,11.37-23.25,2.28-33.77-1.73-1.52,1.45-1.65,3.25-.39,4.91,2.33,3.07,9.44,4.7,9.22,8.64l-15.69-6.51c-2.45.08-3.6,1.44-2.66,3.76,1.14,2.79,6.56,3.56,4.91,6.15l-11.13-5.07-4.26,3.43ZM600.18,792.89c-3.44,2.68,1.65,6.93,4.04,8.3,1.48.84,14.97,4.57,13.66.5l-17.7-8.8ZM315.41,89.18c23.57-5.92,49.02-37.87,14.01-47l9.44,14c7.82,20.39-32.59,37.01-39.3,16.48-3.4-10.41,9.92-22.52,17.28-28.34-23.94,3.49-32.83,52.75-1.43,44.86ZM295.9,147.75c-4.04,12.17-11.24,23.97-15.92,36.21-.63,1.64-2.88,3.94-.79,4.96,11.82-21.86,26.92-43.52,21.48-69.5-1.89,9.59-1.61,18.78-4.77,28.33ZM305.1,70.69c9.04,11.25,37.01-5.83,20.2-14.85l2.68,3.82c-2.99,6.55-8.54,10.19-15.03,5.87l2.39,4.42c-15.37,2.03-9.09-12.48.86-16.85-.9-6.35-17.52,9.6-11.09,17.6ZM361.4,519.51c.22-2.11.21-15.53-3.02-15.11.8,17.98-5.45,37.29-25.28,41.02,17.07,3.58,26.67-10.28,28.29-25.91ZM302.4,492.46l11.95-8.84c6.41-3.89,14.37-3.18,21.34-1.37l14.73,7.33c-12.43-17.7-37.76-15.87-48.02,2.88ZM329.99,536.8c12.03,9,26.32-10.58,17.26-21.86-.64,11.39-6.02,19.07-17.26,21.86ZM325.28,491.17l.03-6.42c-5.41.18-8.7,1.65-11.21,6.78l11.18-.36ZM615.15,779.48l-13.06-17.69-7.97-22.89c-9.43,19.15,2.23,34.89,21.03,40.58ZM627.72,714.78l14.87,10.91c6.8,7.74,7.05,17.53,5.25,27.14l-6.91,13.58c23.21-16.6,14.75-47.69-13.22-51.63ZM625.84,707c3.85,2.99,9.25,2.84,13.87,5.39,11.86,6.56,19.16,18.42,19.02,32.09l-3.48,17.31c17.85-23.59-.22-56.87-29.4-54.79ZM611.03,761.86c-3.05-8.41-4.03-14.08-3.97-23.03-5.66,9.24-5.67,16.77,3.97,23.03ZM409.2,445.46c-5.38,1.77-15.23,8.95-14.15,14.84.73,3.94,3.85-.3,4.66-.75,12.27-6.76,21.88-10.34,35.92-4.74l11.13,5.2c-10.31-10.34-22.26-19.59-37.56-14.56ZM441.92,510.08c2.12-2.02,6.56-6.65.97-6.82-11.36,11.24-27.68,13.45-42.02,6.72l-12.77-8.57c11.74,16.67,38.02,23.67,53.82,8.67ZM435.34,496.96c-5.06,2.4-9.82,6.64-16.01,7.25l-15.82-1.13c11.34,8.93,30.23,6.17,37.7-6.49-2.31-2.46-3.73-.64-5.86.38ZM402.28,470.92l14.16-8.49,16.01,2.21c-11.86-11.53-24.83-10.06-30.17,6.28ZM533.12,632.29c4.37-.67,2.34-1.53-.38-2.19-14.17-3.48-23.25-10.2-22.76-26.15.05-1.53,2.31-14.95,2.67-15.65,4.3-8.34,21.28-13.87,29.79-8.87l9.02,6.04c-4.3-9.43-13.76-11.97-23.34-10.32-34.6,5.95-29.54,56.07,4.99,57.13ZM541.06,565.71c-3.22-.95-24.42-1.03-23.75,3,19.18-1.17,35.31,4.88,44.86,22.46,1.38-1.53,1.79-3.7,1.57-5.67-1.02-9.26-14.44-17.37-22.69-19.79ZM550.83,562.94l11.29,12.6c4.81,7.39,8.1,15.55,8.57,24.42.22,4.08-2.02,8.1-.72,11.44,9.96-18.71-1.21-39.5-19.14-48.46ZM347.6,401.04c3.15-2.86,3.22-7.89,5.54-11.77,5.52-9.21,11.69-12.15,22.01-12.93-16.17-12.01-32.49,8.67-27.55,24.7ZM584.36,651.04l10.67,14.86c2.23,8.12.83,16.66-1.69,24.57,2.53,1.03,6.88-4.44,7.92-6.14,1.81-2.96,3.35-11.7,2.76-15.13-1.71-9.9-10.16-16.54-19.67-18.17ZM563.7,706.35l-10.62-10.56c-4.8-6.97-5.55-14.95-3.9-23.07l5.86-16.64c-17.84,15.09-12.18,40.71,8.66,50.26ZM587.11,641.93l11.11,10.47c5.8,7.42,9.02,15.95,9.65,25.31.21,3.06-1.89,6.19-.24,8.12,8.74-17.39-2.42-38.15-20.52-43.9ZM411.28,601.49c-5.21,1.42-11.12-.1-15.08,3.2,18.54,16.11,45.04-8.4,42.49-28.89-4.61,12.32-14.68,22.23-27.41,25.7ZM380.51,551.29c4.06.49,6.48-3.22,10.53-4.55,15.76-5.15,34.12,3.25,44.24,15.58-4.4-21.11-43.22-31.28-54.77-11.04ZM408.56,591.99c-6.6,1.8-11.79-1.74-17.86-.39,9.75,9.28,23.06,9.01,29.61-3.45.59-1.12,2.05-4.14.23-4.9-2.8,4.16-7.13,7.43-11.99,8.75ZM483.31,224.41l4.29-3.9,1.97-19.28c-4.74,6.94-2.85,15.68-6.26,23.17ZM531.97,785.19l-8.1-12.07c-4.86-8.1-3.96-16.96-1.24-25.68l8.69-16.04c-19.54,13.5-21.85,41.7.64,53.8ZM443.54,347.28c12.17-1.1,21.71,2.98,31,10.82-1.08-14.37-21.73-23.88-31-10.82ZM423.14,360.51l3.67,2.59,8.67-12.3c-6.21-.88-9.42,5.45-12.34,9.7ZM245.78,415.36c-.94,2.51-2.21,12.26-1.16,14.22,2.41,4.51,4.43-7.11,5.18-8.44,6-10.7,12.56-15.42,24.1-18.72-11.87-6.11-23.71,1.19-28.12,12.94ZM318.06,671.01l-9.47-15.08-1-14.38c-7.68,12.23-1.62,23.34,10.47,29.45ZM424.85,650.94c9.8,12.05,27.73,13.9,36.43-.29-13.45,4.81-25.79,5.62-37.42-4.32-3.07,3.11-.68,2.56.99,4.61ZM291.9,603.77c-3.35-3.12-7.85-2.76-11.81-5.42-6.56-4.4-11.98-12.78-14.04-20.32-1.2-4.39.59-9.01-2.76-11.92-14.35,19,8.46,40.98,28.61,37.67ZM278.61,586.09l-2.66-5.45-1.81-14.24c-5.73,7.12-4.21,15.83,4.47,19.7Z"/><path class="cls-1" d="M340.34,185.05c5.13,2.93,10.83,4.89,12.82,10.93.88,2.68,2.54,19.46,1.66,21.44-.49,1.11-1.99,1.75-2.12,3.1-.55,5.6,2.86,15.32,1.99,21.5-.3,2.14-1.67,2.36-1.98,3.87-.47,2.34.67,4.48.5,6.35-.2,2.31-3.03,4.88-1.5,7.64.88,1.14.94.26,1.54-.43,4.73-5.48,2.63-7.2,4.13-12.14.6-1.95,3.12-6.31,3.63-8.73.62-2.93-.49-5.63-.22-8.03.19-1.7,1.4-2.92,1.63-4.23.44-2.55-1.11-6.55,1.33-8.09,2.52,6.93,2.24,13.99,2.62,21.14.23,4.44,1.25,9.07.59,13.61-.31,2.09-1.75,3.41-1.94,5.25-.26,2.45,1.04,4.68.68,7.12-.26,1.77-1.85,2.94-2.17,5.02s.53,4.37.19,6.7c-1.26,8.62-4.48,19.19-6.94,27.54s-3.92,18.08-6.86,26.33c-1.6,4.48-1.74,5.5-2.87,10.14-1.26,5.13-6.13,11.37-7.59,17.19-1.28,5.08-2.2,11.89-4.71,16.7-5.67,10.87-8.33,17.67-12.32,29.32-2.36,6.9-9.12,15.91-11.1,22.14-1.37,4.3-1.72,6.5-4.04,10.87-1.39,2.62-5.44,6.49-3.74,9.94.46.93,5.9,3.76,7.14,3.93,6.01.83,23.67.6,29.96-.04,11.2-1.13,4.19-9.14,8.51-15.56,3.38-5.02,4.06-6.03,5.99-12.23,2.52-8.1,3.83-10.45,7.45-17.93,2.56-5.29,3.37-13.32,6.88-19.15,4.28-7.1,8.24-13.49,12.12-21.06,2.5-4.89,3.84-8.07,7.24-12.26,1.74-2.15,5.23-8.99,6.36-9.59.87-.46,1.97-.27,2.86-.72,6.5-3.23,7.95-14.46,14.92-18.28.82-.45,6.93-2.67,7.65-2.65,2.44.06,11.82,3.66,13.44,5.47,1.76,1.96,1.93,6.02,3.33,8.39.89,1.51,3,2.58,3.52,4.29.78,2.54.47,6.78,1.22,9.84.83,3.36,5.04,11.78,4.96,14.58-.04,1.36-1.27,7.82-1.63,9.49-1.05,4.81-4.44,9.99-5.42,14.75-.41,2.01.17,4.02-.44,6.07-.7,2.37-4.38,7.37-5.3,10.37-.51,1.66.45,2.91-.39,4.71-1.05,2.25-5.76,5.03-6.25,7.48-.33,1.62.86,6.63.47,9.55-1.12,8.32-7.18,17.51-9.9,25.24-3.26,9.25-7.41,16.2-11.2,25.24-.72,1.73-.67,3.97-1.49,5.67-2.3,4.77-1.93,2.93-3.55,8.82-1.24,4.51-3.3,5.76-4.74,8.93-1.92,4.24-2.91,10.41-5.2,14.97-1.35,2.69-4.01,5.33-5.02,7.99s-1.04,6.23-2.14,8.92c-3.47,8.49-7.15,16.71-10.29,25.5-.85,2.37-1.01,6.29-1.92,8.49s-3.17,4.1-3.94,7.12c-1.91,7.52-3.64,14.45-5.69,21.64-2.81,9.85-3.42,20.48-5.34,30.45-.74,3.85-3.51,10.09-3.77,13.18-.63,7.42,3,11.35-.27,19.22-.71,1.72.49,20.29,1.09,22.94.37,1.66,1.88,2.29,2.31,3.54.62,1.79.44,4.2,1.33,6.48,3.5,8.97,8.05,9.79,17.39,8.67,3.24-.39,8.17-4.62,10.73-6.84,5.51-4.77,10.87-11.76,14.59-17.95,5.58-9.27,12-28.86,8.64-39.77-.42-1.38-1.68-2.56-2.12-4.38-.8-3.29-2.16-18.15-1.43-21.03.17-.68,1.54-2.62,2.11-3.1,4.19-3.53,6.06.92,8.44.7,1.58-.15,2.05-2.43,3.62-1.75,1.16.31,5.8,4.92,6.32,6.11.77,1.76.45,3.97,1,5.5,2.57,7.11,3.57,9.55,3.78,17.74.09,3.5-1.39,3.1-1.87,4.69s.08,3.71-.29,5.56c-1.77,8.69-6.34,20.98-10.62,28.42-1.08,1.88-8.41,14.41-9.05,15.02-1.15,1.1-3.2,1.46-4.57,2.59-3.26,2.68-6.31,7.34-9.15,9.72-1.49,1.25-4.43,2.19-6.47,3.94-.98.84-1.57,2.71-2.56,3.3-1.26.75-2.54.38-3.62.96-.57.31-.47,1.57-1.89,1.97-1.74.49-3.74-.08-5.27.6-1.12.5-1.47,2.14-2.18,2.7-2.72,2.17-5.87,2.6-7.91,5.97-3.39-2.61-8.88-2.75-12.64-4.82s-12.05-11.16-13.4-15.23c-4.17-12.55-6.51-25.31-10.01-38.14l-1.37-18.48h-1.95v12.69c0,.31-1.25,4.19-1.6,5.54-.28,1.08-2.42,6.5-3.28,6.49-2.1-3.63-5.19-6.66-3.11-10.89.38-.77,1.24-.81,1.3-.96.48-1.1-.31-6.35-.77-7.68-3.99-11.49-3.66-19.57-2.28-31.51.37-3.2-.54-7.31.02-10.39.28-1.53,1.79-2.75,1.87-4.64.11-2.43-1.09-5.28-.57-8.38.29-1.73,1.6-2.5,1.89-3.96.92-4.61.52-11.3,1.34-15.58.28-1.44,1.65-1.83,1.93-3.27.48-2.47-.38-5.93-.02-8.48.74-5.27,2.13-11.65,3.44-16.73.5-1.94,1.74-4.07,1.83-6.03s-.89-3.63-.69-5.13c.24-1.85,3.36-4.89,1.96-8.18-4.19.59-6.16-.01-7.04-4.39-.66-3.29,3.03-7.34,3.54-10.56.26-1.68-.53-2.76-.4-4.18.3-3.32,3.95-7.65,4.43-9.3.71-2.43.22-5.91,1.6-8.81s5-4.25,5.41-8.92l-3.44-3.81c-8.19-.99-17.92.86-25.91-.12-2.12-.26-2.7-1.2-4.45-1.91l-2.04,1.79c-6.45-4.84-12.91-3.65-16.73,3.55-2.71,5.1-4.24,12.14-7.13,16.95-8.8,14.63-17.05,30.5-25.41,45.52-3.43,6.16-6.69,12.32-10.52,18.11-8.57,12.97-18.02,30.14-31.07,39.21-6.21,4.32-15.2,6.22-20.77.06-.77-.85-.98-2.34-1.45-2.77-.77-.72-2.61-.59-3.71-1.18-2.12-1.15-3.05-3.55-3.3-5.81-1.29-11.48-.35-21.62,3.22-32.57,1.27-3.88,4.87-7.6,7.08-11.14,6.19-9.89,10.37-19.86,16.36-29.83,1.5-2.49,6.07-7.68,6.84-9.43,2.07-4.68,3.19-13.97,5.03-19.05,1.27-3.5,5.63-8.12,7.18-11.69,2.24-5.18,3-12.33,5.19-17.58.83-1.98,2.32-3.27,2.96-5.23-.73-4.91-5.3-5.17-8.28-7.32-7.22-5.22-21.19-16.23-26.7-22.75-2.4-2.84-2.73-5.48-6.17-7.5-1.02-.6-2.63-.49-3.29-1.26-.54-.63-.56-2.22-1.33-3.23-4.4-5.78-9.12-11.62-12.16-18.42-2.28-5.11-4.4-12.42-6.18-17.89s-.79-16-1.45-22.62c-.12-1.18.22-2.43-1.33-2.9v-1.3c5.08-1.13,2.41-4.74,2.73-7.34,1.29-10.44,9.31-28.89,13.86-38.86,4.14-9.07,11.8-15.4,16.22-23.47,7.85-14.32,23.04-26.77,35.19-37.69,9.87-8.87,20.45-19.83,31.74-26.82,5.82-3.6,10.09-7.4,15.44-11.24,1.96-1.41,27.15-13.37,29.99-14.26,3.38-1.07,8.03-.36,10.36-3.64h16.27ZM320.81,201.96c-4.68,1.28-9.39,2.71-13.8,4.74-22.17,10.22-40.85,26.36-59.78,40.44-17.07,18.14-34.44,35.16-47.34,56.12-1.31,2.12-5.84,7.72-6.34,9.27-.82,2.56-.45,5.72-1.72,8.69-2.74,6.38-3.4,5.48-4.61,13.05-.22,1.4-3.86,5.84-4.24,7.43-.44,1.83.61,3.19.5,4.95-.12,1.93-1.69,3.28-1.96,5.25-.25,1.8.36,9.79.7,11.72.28,1.55,1.99,2.93,2.43,4.73.56,2.32.19,5.7.98,8.13,1.37,4.24,6.48,13.54,8.63,18.05.37.77,7.72,11.13,8.3,11.55.97.71,3.18.53,4.71,1.47,2.49,1.53,6.4,6.84,9.11,9.11,6.02,5.03,15.47,10.41,22.56,13.23,2.23.88,3.33,3.13,5.94,1.68,4.07-2.26,3.8-6.97,5.18-10.47.72-1.83,3.16-5.3,3.56-6.85.42-1.64-.16-3.38.29-4.92,1.31-4.55,7.57-16.35,9.76-21.47,3.5-8.18,5.08-15.49,8.06-23.18,5.4-13.92,14.67-27.11,20.09-41.08,2.18-5.62,3.41-13.21,5.74-18.98s6.35-11.16,8.25-17.78c2.22-7.76,4.42-15.69,7.18-23.4.44-1.23,1.39-2.15,1.89-3.33l-.94-1.52c-2.1-.61-6.96,5.06-7.32,6.3-.89,3.08.14,5.81-2.17,9.54-.94,1.51-5.59,5.24-5.7,6.04s1.1,1.46,1.18,2.47c.18,2.44-2.53,8.12-3.82,10.48-.42.77-1.72,1.3-2.25,2.3-.97,1.83-.69,4.41-1.52,6.29-1.1,2.46-6,6.51-6.99,9.93-1.62.8-.93-3.45-.81-4.07.71-3.58,4.71-7.35,5.55-10.72.4-1.62-.09-3.28.31-4.9.64-2.59,5.36-7.66,6.06-10.88,1.3-5.98,1.77-9.49,4.73-15.42,1.59-3.18,8.66-12.19,9.09-13.69,1.06-3.71-.36-7.39,2.24-12.07,1.23-2.21,4.25-3.79,5.33-5.73,1.31-2.35.65-4.33,1.32-6.49,1-3.23,6.75-8.46,5.49-12.55l-2.52-1.08c-.49,2.65-1.79,10.13-4.54,10.77-2.53.59-.65-5.05-.31-6.18,1.82-6.07,6.17-9.68,3.54-16.95ZM326.02,207.17h-.96s-.99,1.29-.99,1.29h1.95s0-1.29,0-1.29ZM266.15,224.73c.32-.25-1.14-1.72-1.95-1.29-.32.25,1.14,1.72,1.95,1.29ZM352.67,265.04l-.29-1.27-2.28,3.25c1.99.43.91-.88,1.5-1.74.22-.32,1-.16,1.07-.24ZM351.4,270.94h-1.29v1.29h1.29v-1.29ZM349.44,272.89h-1.29v1.29h1.29v-1.29ZM345.54,287.21h-1.29v.64h1.29v-.64ZM187.4,310.63l-1.29.32,1.29.98v-1.3ZM183.49,322.34l-1.29.32,1.29.98v-1.3ZM308.44,322.34c-4.4-.7-1.8,5.34-.48,2.44.35-.77.56-1.59.48-2.44ZM172.52,360.63c5.55,1.84,4.4-2.23,5.27-5.28,1.46-5.1.52-5.74,1.19-10.53.37-2.63,1.21-6.47,1.7-9.35.33-1.91,2.97-4.15.52-5.98-1.6-.47-3.17,1.74-3.45,3.1-1.37,6.73-1.79,13.73-3.52,20.5-.61,2.38-2.62,4.68-1.72,7.54ZM302.59,341.85c-.09-1.92.84-5.24-1.95-5.2.09,1.92-.84,5.24,1.95,5.2ZM396.95,349.01c.4-.43-.3-2.58-.97-2.59-1.94-.02-.18,3.83.97,2.59ZM177.64,369.19h-1.3s0,1.29,0,1.29l1.29-1.29ZM384.59,376.34h-1.29v.64h1.29v-.64ZM336.43,496.06l-1.29.32,1.29.98v-1.3ZM349.44,676.94h-1.95v.64h1.95v-.64ZM348.24,684.64c1.56.78,3.53,1.39,3.8-.86-1.1-1.2-2.02-2.62-3.89-2.29l.09,3.15ZM352.7,689.94v-.96s-1.29-.99-1.29-.99v1.95s1.29,0,1.29,0Z"/><path d="M323.41,539h-1.95c.23-2.37-1.56-4.29.97-5.85,1.73,1.43.78,3.93.97,5.85Z"/><path d="M282.87,320.17c-1.46,1.24-2.94,1.22-2.9-.89.03-1.58,3.3-4.28,2.45-6.71.53-.56,4.18,1.69,3.93,2.93,0,.4-3.05,4.31-3.48,4.67Z"/><path d="M268.1,350.96c1.37,1.39-2.76,3.74-3.9,3.25-.44-1.51,3.07-4.09,3.9-3.25Z"/><path d="M280.46,326.89l-3.01,3.81-2.83-.89c.89-1.53,2.79-.58,3.76-1.12.53-.29.44-2.3,2.08-1.8Z"/><polygon points="273.96 337.29 272.66 337.29 272.66 336 273.96 337.29"/><rect x="314.31" y="228.65" width="1.29" height=".64"/><path class="cls-11" d="M305.17,685.6c.43-.88,1.41-.93,1.48-1.1.55-1.25-.35-7.22-.88-8.73-4.53-13.06-4.17-22.24-2.59-35.82.42-3.64-.61-8.31.02-11.82.31-1.73,2.03-3.13,2.13-5.27.07-1.55-.33-3.26-.59-5.08l-27.09,61.08c-2.73,6.15-9.92,8.92-16.07,6.19l-77.37-34.32c-6.15-2.73-8.92-9.92-6.19-16.07h0c-.5.53-1.08.7-1.78.23l.84-2.02c-2.76-3.75-3.51-4.76-6.28-8.51-4.36.38-8.66-.8-11.92-4.4-.49-.54-.78-1.29-1.03-1.95l-13.26,30.08c-3.25,8.02-1.5,17.71,3.6,21.41l129.42,57.18c5.92,2.22,14.41-2.29,18.7-9.61l10.05-22.82c-1.66-2.68-2.82-5.35-1.19-8.66Z"/><g id="I0DHlK.tif"><path class="cls-1" d="M694.3,467.95c14.44,12.37,16.38,21.43,8.75,38.73-7.32,16.6-19.9,32.64-31.95,46.1-9.08,10.15-19.27,18.49-28.63,27.59-4.53,4.41-6.66,3.64-8.28,11.16-2.44,11.31-3.04,35.9-.02,47.04.62,2.3,1.48,5.08,2.66,7.13,15.86,5.85,45.36-32.14,56.72-40.98,1.29.85-.24,2.62-.83,3.49-4.09,5.97-11.88,11-15.13,17.86l19.72-18.92.16,3.05,3.08-.67-1.54,4.87,1.91.69c-6.74,9.13-13.22,18.36-19.61,27.57-1,1.44-.84,3.59-2.09,5.32-26.59,36.84-71.44,7.72-66.92-31.73l-1.91-.71c-2.58,4.94-9.14,5.2-13.59,8.49-2.47,1.82-3.94,4.51-6.7,6.34-8,5.29-11.71,4.56-17.05,14.9-7.05,13.64-13.5,28.33-20.54,42.26-3.79,7.5-7.39,13.84-12.08,21.13-4.22,6.57-17.66,18.73-25.98,15.68-2.81-1.03-5.07-4.24-6.98-5.53-3.29-2.22-5.34-.18-8.44-5.74-9.44-16.93,13.52-43.88,24.78-55.84,7.75-8.23,26.04-20.46,31.13-27.85,1.85-2.68,5.48-12.52,6.93-16.25,5.15-13.17,9.24-27.06,12.11-40.92l-23.02,26.12,1.75,2.19c-9.03,4.22-14.88,13.77-22.45,20.61-2.45,2.21-7.26,6.45-9.91,7.99-1.51.88-3.04.97-.9-1.12s7.57-4.42,7.41-7.72c-2.99,1.92-6.11,5.02-8.93,6.93-.99.67-3.16.52-3.47.85-.28.3,1.28,5.9-4.56,4.39l2.16-1.26c-1.45-2.46-4.63-.82-6.35-1.26-1.5-.38-2.34-1.86-3.86-2.36-3.53-1.16-9.77.28-6.83-5.83,1.96.38-.41,2.81,2.65,1.5-.04,1.78,2.72,5,3.94,2.26-3.25-1.84-3.66-5.09-8.36-5.13l-.28-2.89c-7.97,8.52-17.75,16.5-29.04,20.27-16.2,5.42-30.08,1.56-44.38-6.87-10.58-6.24-15.14-21.09-16.46-32.54.99-5.42.77-11.58,1.89-16.89,4.07-19.25,28.04-60.49,49.89-61.59,6.54-.33,4.49,1.93,6.24,3.15,1.61,1.12,3.21,1.17,4.92,2.88,8.39,8.36,10.36,15.97,3.76,26.28-3.95,6.17-23.67,24.31-30.1,27.12-3.7,1.62-8.53.02-11.36,4.81-1.46,2.48-4.15,16.13-4.21,19.16-.02.93,1.86,10.88,2.18,11.36,2.7,4.05,12.42,2.16,16.58,1.32,20.15-4.07,40.07-17.2,54.73-31.19,2.09-7.8,5.42-23.97,10.13-30.36,1-1.35,2.63-1.22,2.86-1.47.27-.3-1.19-5.88,1.05-7.79l4.81,1.53c1.24-3.71-3.56-1.32-4.68-3.03,3.91-4.4,5.25-11.38,8.64-16.37,2.79-4.1,2.82,5.53,6.98,2.52l-.32,2.98-2.98-.32,1.87,1.73-4.83,16.4-3.13.3c.27,1.3,1.3,1.53,1.18,3.18-.41,5.66-5.36,14.12-6.72,19.9-.79,3.35-.61,6.98-1.23,10.37l-3.02.17c3.52,1.38.8,2.03.63,4.19-.51,6.54-2.29,12.4-3.66,18.64-.19.88-1.67,1.56-1.88,2.76l2.58,2.26-1.17,3.46c12.37-7.6,21.58-20.75,31.27-31.63,1.13-1.27,2.75-2.01,3.79-3.18,7.43-8.31,28.19-38.59,39.11-38.38,2.94.06,8.19,5.73,9.93,8.25,9.97,14.42-1.47,41.6-3.85,57.29-.21,1.35-1.34,5.3,1.01,4.67l26.62-13.12c7.01-31.33,16-60.9,32.4-88.6,10.05-16.98,24.18-36.96,43.3-43.77l5.96.67ZM683.24,494.88l-.28-2.04c-6.54,3.93-9.44,11.09-13.54,16.8-3.58,4.98-8.49,10.62-11.67,16.22-5.73,10.09-9.69,21.23-13.76,32.04,8.38-5.12,44.99-60.45,42.43-64.67l-3.18,1.65ZM644.21,564.97c5.51-5.33,11.46-11.73,15.12-18.43-5.51,5.33-11.46,11.73-15.12,18.43ZM451.42,526.25l-11.55,5.35-3.67,5.02c3.89-2.54,9-4.79,12.8-7.18,1.27-.8,2.58-1.37,2.42-3.19ZM612.81,602.71c-1.07-1.18-22.7,11.33-25.85,12.36l-5.18,4.27c2.57-.33,5.59-1.93,7.92-3.1,6.74-3.38,14.42-7.43,20.94-11.19.57-.33,3.72-.64,2.16-2.35ZM519.78,613.05c2.08-1.87,7.45-7.82,8.7-10.09.67-1.22.84-2.63-.38-2.69-1.76-.1-9.94,9.5-11.86,11.24-3.16,2.85-9.23,4.64-10.07,9.42,1.09,1.41,12.2-6.62,13.6-7.88ZM486.33,600.61c-1.81-.64-2.48.77-3.7,1.59-6.1,4.07-11.77,9.2-18.06,13.06,8.41-1.92,15.36-9.13,21.76-14.65ZM533.01,605.84c-2.58.06-5.28,3.55-7.04,5.33-2.16,2.19-5.11,5.51-6.53,8.24,1.62-.49,3.08-1.94,4.33-3.06,3.14-2.82,7.11-6.84,9.25-10.5Z"/><path class="cls-1" d="M644.21,564.97c3.66-6.7,9.61-13.09,15.12-18.43-3.66,6.7-9.61,13.09-15.12,18.43Z"/></g><path class="cls-11" d="M528.82,20.04c-1.85-2.73-40.14-18.76-45.46-19.91-9.31-2.03-18.01,20.77-19.59,30.07-.87,5.12,3.58,6.95,2.92,8.82-.55,1.57-37.78,70.82-37.78,70.82-.07.15-.14.3-.23.45-4.06,6.35-18.86,7.53-25.9,10.73-15.41,6.99-29.63,18.93-41.73,33.81-.53.66-.77,1.51-.66,2.35.86,6.39,1.57,14.28.99,15.69-.17.42-.47.78-.79,1.14-.64.7-.91,1.66-.76,2.6.23,1.41.4,2.82.54,4.24.28,2.89,4,3.84,5.63,1.43,1.1-1.62,2.22-3.21,3.36-4.77.31-.43.5-.93.57-1.46.13-1.04.52-1.94,1.42-2.54.12.3.22.61.33.91,17.47-22.58,39.31-36.62,68.66-33.66,1.05.11,2.33.23,3.76.39,3.86.44,3.53,6.14-.35,6.14-17.93-.03-37.49,8.98-54.02,23.9-1.67,1.51-1.18,4.26.91,5.13l2.59,1.07c8.04-11.88,21.5-19.84,36.93-20.23,25.4-.65,46.51,19.42,47.16,44.81.2,7.8-1.56,15.2-4.83,21.72-.2,1.08-.51,2.16-.94,3.21l-24.58,59.46c-.64,1.54.06,3.32,1.59,3.99,1.9.83,3.45,1.67,4.07,2.32,2.01,2.13,2.32,6.64,3.94,9.23,1.03,1.65,3.41,2.79,4.04,4.67.94,2.8.71,7.53,1.64,10.9,0,.02,0,.03.01.05.79,2.8,4.7,2.98,5.81.29l31.08-75.71c.05-.11.09-.23.12-.35,10.26-35.96,6.91-67.23-6.67-94.17-1.84-3.65-6.58-5.5-5.81-11.04.03-.22.09-.44.16-.64l23.17-77.6c.38-1.04,1.29-1.81,2.39-1.98,8.55-1.31,19.26-31.96,16.34-36.28Z"/></g></svg>